<svg
  className="animated"
  id="freepik_stories-volunteering"
  xmlns="http://www.w3.org/2000/svg"
  viewBox="0 0 500 500"
  version="1.1"
  xmlnsXlink="http://www.w3.org/1999/xlink"
  xmlnssvgjs="http://svgjs.com/svgjs"
>
  <g id="freepik--background-complete--inject-4" className="animable" style="transform-origin: 257.236px 247.728px">
    <path
      d="M128.53,163.3c.75-5.44-6.93-9.92-12.7-10.38-2.75-.23-5.61.19-8.22-.71-5.65-2-7.9-9.27-13.42-11.6-4.12-1.73-8.86-.19-12.85,1.82s-8,4.54-12.41,4.83c-3.88.25-8.1-1.19-11.49.71-2.53,1.41-3.86,4.33-6.19,6.05s-5.26,2-8.09,2.19-5.77.18-8.35,1.36-4.71,3.91-4.17,6.69Z"
      style="fill: rgb(235, 235, 235); transform-origin: 79.5683px 152.06px"
      id="elv0odacapti"
      className="animable"
    ></path>
    <path
      d="M177.58,42.81c.56-4.1-5.22-7.47-9.57-7.82-2.07-.17-4.22.15-6.19-.54-4.25-1.48-5.95-7-10.1-8.72-3.1-1.31-6.67-.15-9.68,1.37s-6,3.41-9.34,3.63c-2.92.19-6.1-.9-8.66.53-1.9,1.07-2.9,3.26-4.66,4.56s-4,1.53-6.09,1.65a17.22,17.22,0,0,0-6.28,1c-1.94.89-3.55,2.95-3.14,5Z"
      style="fill: rgb(245, 245, 245); transform-origin: 140.712px 34.3154px"
      id="eljt2v0m2w1kn"
      className="animable"
    ></path>
    <path
      d="M343.7,72.52c.88-6.36-8.09-11.58-14.83-12.13-3.21-.25-6.55.24-9.59-.82-6.6-2.3-9.23-10.82-15.66-13.54-4.82-2-10.35-.22-15,2.13s-9.27,5.3-14.48,5.63c-4.53.29-9.46-1.39-13.42.83-3,1.65-4.5,5.05-7.23,7.06s-6.14,2.38-9.44,2.56-6.73.21-9.74,1.59-5.5,4.56-4.88,7.82Z"
      style="fill: rgb(245, 245, 245); transform-origin: 286.547px 59.4069px"
      id="els8ujobils9b"
      className="animable"
    ></path>
    <path
      d="M418.33,305c-21-5.48-39.29-19.27-49.48-37.24a71.63,71.63,0,0,1-5.19-59.15c5.4-15.05,15.82-28.29,20.28-43.6,5.07-17.38,2.05-35.82-1.08-53.6s-6.32-36.15-1.56-53.61S401,24,420.25,22.74c17.85-1.15,34.33,11.2,41.78,26.4s7.49,32.61,5.75,49.24-5.13,33.24-4.06,49.92c2.15,33.76,22.4,65.55,20,99.3-1.24,17.57-8.52,28.82-21,42C452,301,434.15,308.53,418.33,305"
      style="fill: rgb(245, 245, 245); transform-origin: 421.74px 164.271px"
      id="elwqdqlx44dx"
      className="animable"
    ></path>
    <path
      d="M424.64,472.34c-.18,0-.34-74.8-.34-167s.16-167.06.34-167.06S425,213,425,305.29,424.83,472.34,424.64,472.34Z"
      style="fill: rgb(224, 224, 224); transform-origin: 424.65px 305.31px"
      id="eljz6gdpip2h"
      className="animable"
    ></path>
    <path
      d="M423.68,246.66a23.91,23.91,0,0,1-3.09-2.71c-1.84-1.74-4.33-4.2-7-7s-5.06-5.29-6.8-7.11a24.88,24.88,0,0,1-2.74-3,26.19,26.19,0,0,1,3.08,2.72c1.84,1.74,4.34,4.2,7,7s5.05,5.29,6.8,7.11A26.34,26.34,0,0,1,423.68,246.66Z"
      style="fill: rgb(224, 224, 224); transform-origin: 413.865px 236.75px"
      id="elcqwe8fi63rt"
      className="animable"
    ></path>
    <path
      d="M425.69,176.68a23.29,23.29,0,0,0,6.82-2.84,18.77,18.77,0,0,0,5.48-5.51,18.43,18.43,0,0,0,3-8.73l0-.3.39.33a14.66,14.66,0,0,0-8.22,4.52,31.23,31.23,0,0,0-4.59,6.15c-1.1,1.89-1.87,3.47-2.39,4.57a13.9,13.9,0,0,1-.85,1.7,8.71,8.71,0,0,1,.61-1.79,43.58,43.58,0,0,1,2.21-4.68,29.54,29.54,0,0,1,4.55-6.34,15.15,15.15,0,0,1,8.58-4.76l.43-.06,0,.39,0,.31a19,19,0,0,1-8.86,14.56,17.31,17.31,0,0,1-5.07,2.16,14.19,14.19,0,0,1-1.49.28A2.1,2.1,0,0,1,425.69,176.68Z"
      style="fill: rgb(224, 224, 224); transform-origin: 433.52px 167.813px"
      id="el8qt8r4alcfg"
      className="animable"
    ></path>
    <path
      d="M425.69,176.68c-.14-.12,1.95-2.72,4.68-5.82s5.06-5.53,5.2-5.42-1.95,2.71-4.68,5.82S425.83,176.79,425.69,176.68Z"
      style="fill: rgb(224, 224, 224); transform-origin: 430.63px 171.06px"
      id="elwu9q9nkfym7"
      className="animable"
    ></path>
    <polygon
      points="330.78 371.55 307.46 472.79 317.32 472.76 340.69 372.51 330.78 371.55"
      style="fill: rgb(224, 224, 224); transform-origin: 324.075px 422.17px"
      id="eldowju265z4k"
      className="animable"
    ></polygon>
    <polygon
      points="373.31 371.55 396.71 472.79 406.08 472.79 383.44 371.55 373.31 371.55"
      style="fill: rgb(224, 224, 224); transform-origin: 389.695px 422.17px"
      id="elf5idd5gf6gk"
      className="animable"
    ></polygon>
    <polygon
      points="315.04 295.51 328.32 365.21 343.4 365.21 329.22 295.51 315.04 295.51"
      style="fill: rgb(224, 224, 224); transform-origin: 329.22px 330.36px"
      id="el6ily5x287l4"
      className="animable"
    ></polygon>
    <polygon
      points="83.81 371.55 64.79 472.79 74.47 472.79 94.34 371.55 83.81 371.55"
      style="fill: rgb(224, 224, 224); transform-origin: 79.565px 422.17px"
      id="elpd6im0q9og"
      className="animable"
    ></polygon>
    <polygon
      points="123.8 371.55 145.54 472.24 155.11 472.24 134.12 371.55 123.8 371.55"
      style="fill: rgb(224, 224, 224); transform-origin: 139.455px 421.895px"
      id="eljz7ii4lt1sp"
      className="animable"
    ></polygon>
    <polygon
      points="68.07 295.51 81.35 365.21 96.44 365.21 82.25 295.51 68.07 295.51"
      style="fill: rgb(224, 224, 224); transform-origin: 82.255px 330.36px"
      id="elawyxpjv1rw"
      className="animable"
    ></polygon>
    <polygon
      points="38.2 289.18 40.92 301.85 343.85 301.85 340.32 289.18 38.2 289.18"
      style="fill: rgb(235, 235, 235); transform-origin: 191.025px 295.515px"
      id="elf9q7w1st3h"
      className="animable"
    ></polygon>
    <polygon
      points="43.99 313.79 47.19 326.46 348.08 326.46 345.34 313.79 43.99 313.79"
      style="fill: rgb(235, 235, 235); transform-origin: 196.035px 320.125px"
      id="elxrd9i2hzqsg"
      className="animable"
    ></polygon>
    <polygon
      points="49.97 339.27 52.95 351.94 352.9 351.94 350.07 339.27 49.97 339.27"
      style="fill: rgb(235, 235, 235); transform-origin: 201.435px 345.605px"
      id="elvkbypg2xtth"
      className="animable"
    ></polygon>
    <rect
      x="72.9"
      y="365.21"
      width="323.45"
      height="12.67"
      style="fill: rgb(235, 235, 235); transform-origin: 234.625px 371.545px"
      id="elr3diaoncca"
      className="animable"
    ></rect>
  </g>
  <g id="freepik--Floor--inject-4" className="animable" style="transform-origin: 250px 472.34px">
    <path
      d="M468.78,472.34c0,.15-98,.26-218.77.26s-218.79-.11-218.79-.26,97.94-.26,218.79-.26S468.78,472.2,468.78,472.34Z"
      style="fill: rgb(38, 50, 56); transform-origin: 250px 472.34px"
      id="elrdqd1shs0k"
      className="animable"
    ></path>
  </g>
  <g id="freepik--speech-bubble--inject-4" className="animable" style="transform-origin: 110.298px 94.5691px">
    <path
      d="M110.26,59.74a3.39,3.39,0,0,0-.6,0l-1.76.05c-.39,0-.83,0-1.3.06l-1.56.22-1.81.26-2,.5a32.83,32.83,0,0,0-9.83,4.29A34.64,34.64,0,0,0,75.44,91.18a35.66,35.66,0,0,0-.1,4.75c.06.8,0,1.62.16,2.43s.24,1.63.37,2.45a34.83,34.83,0,0,0,3.3,9.67,36.82,36.82,0,0,0,6.32,8.69,36.32,36.32,0,0,0,9.1,6.54,33.09,33.09,0,0,0,11.09,3.41,22.44,22.44,0,0,0,3,.25,27.08,27.08,0,0,0,3,0,35.81,35.81,0,0,0,6-.75,35.2,35.2,0,0,0,11.93-5l-.36,0,12.15,4.88.72.29-.21-.75c-1.22-4.46-2.42-8.79-3.57-13l-.06.32a34.82,34.82,0,0,0,6.48-14.84,31.67,31.67,0,0,0,.48-7.6,25.65,25.65,0,0,0-.35-3.65l-.27-1.78c-.11-.59-.29-1.15-.43-1.72a34.78,34.78,0,0,0-13.55-19.76,33.34,33.34,0,0,0-8.07-4.26l-1.82-.65L119,60.73l-1.58-.39c-.51-.1-1-.15-1.45-.22-.92-.11-1.73-.27-2.44-.31l-1.78-.06-1.09,0a2,2,0,0,0-.37,0,1.49,1.49,0,0,0,.37,0l1.08.09,1.78.12c.7,0,1.5.23,2.41.36A34.56,34.56,0,0,1,143.52,86c.13.56.31,1.12.41,1.69s.18,1.16.26,1.75a22.37,22.37,0,0,1,.32,3.58,31,31,0,0,1-.49,7.46A34.22,34.22,0,0,1,137.63,115l-.11.14,0,.18q1.71,6.3,3.54,13l.52-.45L129.48,123l-.19-.08-.17.11a34.44,34.44,0,0,1-17.52,5.65,25.83,25.83,0,0,1-2.92-.06,21.54,21.54,0,0,1-2.9-.24A32.24,32.24,0,0,1,94.93,125,35.78,35.78,0,0,1,86,118.64a36.84,36.84,0,0,1-6.21-8.49,34.45,34.45,0,0,1-3.26-9.47c-.13-.8-.25-1.6-.37-2.4s-.11-1.59-.17-2.38a36.09,36.09,0,0,1,.08-4.66A34.33,34.33,0,0,1,91.61,65.48a33,33,0,0,1,9.67-4.36l2-.54,1.8-.29,1.54-.26c.47-.05.9-.06,1.29-.09l1.75-.13A2.53,2.53,0,0,0,110.26,59.74Z"
      style="fill: rgb(38, 50, 56); transform-origin: 110.298px 94.5691px"
      id="elcohv54lbxzv"
      className="animable"
    ></path>
    <path
      d="M104.81,91.47l1.93,0,4.07-5.93-.08-3.84s3-.24,2.72,4.79.11,3.75.11,3.75,6.31-.11,6.84.43.69,6.65.83,10.05a3.68,3.68,0,0,1-2.53,3.76,2.73,2.73,0,0,1-.68.1c-1.57,0-9.64-1.08-9.64-1.08l-3.32.07Z"
      style="fill: rgb(255, 90, 90); transform-origin: 113.025px 93.1391px"
      id="ell2641r5zvdn"
      className="animable"
    ></path>
    <polygon
      points="99.29 90.53 100.74 103.65 104.03 103.59 103.77 90.7 99.29 90.53"
      style="fill: rgb(255, 90, 90); transform-origin: 101.66px 97.09px"
      id="elzwx9qpiub8"
      className="animable"
    ></polygon>
  </g>
  <g id="freepik--Plant--inject-4" className="animable" style="transform-origin: 102.524px 450.376px">
    <path
      d="M102.54,428a8.45,8.45,0,0,1,4.35,4.93,14.74,14.74,0,0,1,.57,6.67c-.49,4.33-2.95,8.7-5.59,12.16-3.65-3.19-4.49-8.74-4.74-11.58-.39-4.49,1.63-12.85,5.41-12.18"
      style="fill: rgb(255, 90, 90); transform-origin: 102.347px 439.861px"
      id="eleyp7mtxpid"
      className="animable"
    ></path>
    <path
      d="M106.1,458.85a7.17,7.17,0,0,1,2.31-6.8,9.45,9.45,0,0,1,7-2.19,4,4,0,0,1,3.08,1.38,3.07,3.07,0,0,1,0,3.1,6.24,6.24,0,0,1-2.3,2.26c-3.16,2-6.58,3.32-10.15,2.25"
      style="fill: rgb(255, 90, 90); transform-origin: 112.436px 454.524px"
      id="el9aeakd1oqx6"
      className="animable"
    ></path>
    <path
      d="M101.43,472.12a5.69,5.69,0,0,1,.13-.89c.11-.62.26-1.43.44-2.4a25,25,0,0,1,2.48-7.68,15.41,15.41,0,0,1,5.51-5.86,10.29,10.29,0,0,1,2.25-1,5.3,5.3,0,0,1,.64-.16.61.61,0,0,1,.24,0,16.23,16.23,0,0,0-3,1.39,15.74,15.74,0,0,0-5.35,5.81,26.58,26.58,0,0,0-2.54,7.58c-.22,1-.4,1.82-.54,2.38A4.66,4.66,0,0,1,101.43,472.12Z"
      style="fill: rgb(38, 50, 56); transform-origin: 107.275px 463.119px"
      id="elelvfjnbsskl"
      className="animable"
    ></path>
    <path
      d="M101.56,434.45a1.27,1.27,0,0,1,0,.39c0,.29,0,.66.07,1.12,0,1,.1,2.37.16,4.1.11,3.47.2,8.27.18,13.56s-.15,10.09-.3,13.56c-.07,1.73-.14,3.14-.2,4.1,0,.46,0,.83-.07,1.12a1.83,1.83,0,0,1,0,.39,1.73,1.73,0,0,1,0-.39c0-.29,0-.66,0-1.12,0-1,.06-2.4.1-4.11.08-3.47.18-8.26.2-13.55s0-10.08-.08-13.55c0-1.71-.05-3.1-.07-4.11v-1.12A2.39,2.39,0,0,1,101.56,434.45Z"
      style="fill: rgb(38, 50, 56); transform-origin: 101.681px 453.62px"
      id="elw5cfh4cih1f"
      className="animable"
    ></path>
    <path
      d="M99.8,461.49a16.74,16.74,0,0,0-9.15-12.27c-1.21-.58-2.8-1-3.81-.06s-.77,2.54-.28,3.8a14.3,14.3,0,0,0,13.15,8.88"
      style="fill: rgb(255, 90, 90); transform-origin: 92.9687px 455.223px"
      id="eldjhsk7zd6e7"
      className="animable"
    ></path>
    <path
      d="M91.24,453.33a4.28,4.28,0,0,1,.78.33c.24.12.54.27.87.47a11.59,11.59,0,0,1,1.11.7,13.75,13.75,0,0,1,1.28,1A16.55,16.55,0,0,1,96.63,457a18.61,18.61,0,0,1,2.58,3.31,17.88,17.88,0,0,1,1.69,3.83,14.76,14.76,0,0,1,.43,1.78,14.21,14.21,0,0,1,.22,1.58,12.6,12.6,0,0,1,.06,1.31,7.44,7.44,0,0,1,0,1,4.88,4.88,0,0,1-.09.84c-.07,0,.05-1.2-.16-3.12a14.74,14.74,0,0,0-.26-1.55,16.44,16.44,0,0,0-.44-1.74,19.59,19.59,0,0,0-1.69-3.76,18.81,18.81,0,0,0-2.52-3.27A14.77,14.77,0,0,0,95.11,456a15.45,15.45,0,0,0-1.23-1C92.31,453.89,91.21,453.39,91.24,453.33Z"
      style="fill: rgb(38, 50, 56); transform-origin: 96.4331px 461.99px"
      id="el0mboqe5lir2"
      className="animable"
    ></path>
  </g>
  <g id="freepik--Characters--inject-4" className="animable" style="transform-origin: 260.921px 249.999px">
    <path
      d="M309.46,435.36l.71,35.87-44.63,1.11c.16-4.27,23-13.4,23-13.4l-1.4-23Z"
      style="fill: rgb(255, 90, 90); transform-origin: 287.855px 453.85px"
      id="eldavffevpgnq"
      className="animable"
    ></path>
    <g id="elq7o761m5m5h">
      <g style="opacity: 0.6; transform-origin: 301.934px 458.294px" className="animable">
        <path
          d="M302.32,456.66a1.82,1.82,0,0,1,1.31,2,1.74,1.74,0,0,1-2,1.32,1.92,1.92,0,0,1-1.38-2.18,1.82,1.82,0,0,1,2.25-1.14"
          style="fill: rgb(255, 255, 255); transform-origin: 301.934px 458.294px"
          id="elnpaijh64bbc"
          className="animable"
        ></path>
      </g>
    </g>
    <g id="elm4u4gyjorq">
      <g style="opacity: 0.6; transform-origin: 287.841px 469.965px" className="animable">
        <path
          d="M310.17,471.23l-.21-3.61L267.25,470s-2,.92-1.71,2.31Z"
          style="fill: rgb(255, 255, 255); transform-origin: 287.841px 469.965px"
          id="elvewto357hn"
          className="animable"
        ></path>
      </g>
    </g>
    <path
      d="M287.84,458.73c0,.22,1.11.29,2.2,1s1.68,1.58,1.88,1.49-.16-1.34-1.49-2.14S287.79,458.53,287.84,458.73Z"
      style="fill: rgb(38, 50, 56); transform-origin: 289.905px 459.878px"
      id="elsrrp4hx6rre"
      className="animable"
    ></path>
    <path
      d="M283.21,460.78c0,.21.91.56,1.67,1.46s1,1.88,1.22,1.86.33-1.25-.65-2.35S283.21,460.57,283.21,460.78Z"
      style="fill: rgb(38, 50, 56); transform-origin: 284.73px 462.394px"
      id="elizbb4we8mcs"
      className="animable"
    ></path>
    <path
      d="M280.69,466.45c.2,0,.48-1.05-.11-2.23s-1.62-1.63-1.71-1.45.56.81,1,1.78S280.48,466.43,280.69,466.45Z"
      style="fill: rgb(38, 50, 56); transform-origin: 279.898px 464.591px"
      id="ela58qhjlbcto"
      className="animable"
    ></path>
    <path
      d="M288.11,453.46c.09.2,1.08-.13,2.32-.08s2.2.42,2.31.23-.83-.94-2.29-1S288,453.29,288.11,453.46Z"
      style="fill: rgb(38, 50, 56); transform-origin: 290.425px 453.135px"
      id="eltn1yys6s5so"
      className="animable"
    ></path>
    <path
      d="M289,448.14a4.2,4.2,0,0,0,2.23-.07,10,10,0,0,0,3.59-1.49,2.53,2.53,0,0,0,.66-.54.94.94,0,0,0,.07-1.16,1.2,1.2,0,0,0-1-.48,2.81,2.81,0,0,0-.83.14,7.74,7.74,0,0,0-1.38.51,8,8,0,0,0-2,1.41c-1,1-1.34,1.8-1.27,1.84s.59-.62,1.63-1.44a8.53,8.53,0,0,1,2-1.17,8.24,8.24,0,0,1,1.27-.43c.47-.14.88-.15,1,.06s0,.11,0,.25a2.39,2.39,0,0,1-.49.4,13.24,13.24,0,0,1-1.16.7,11.85,11.85,0,0,1-2.14.88A14.7,14.7,0,0,0,289,448.14Z"
      style="fill: rgb(38, 50, 56); transform-origin: 292.359px 446.351px"
      id="el7ttyap87yo"
      className="animable"
    ></path>
    <path
      d="M289.33,448.44a3.5,3.5,0,0,0,.53-2.17,7,7,0,0,0-1-3.78,1.83,1.83,0,0,0-1.45-1.09,1.05,1.05,0,0,0-.92.64,3.26,3.26,0,0,0-.21.83,5,5,0,0,0,0,1.5,5.1,5.1,0,0,0,1,2.29c.9,1.13,1.82,1.37,1.83,1.3s-.7-.52-1.39-1.61a5.28,5.28,0,0,1-.76-2.08,4.72,4.72,0,0,1,0-1.3c.06-.47.23-.86.4-.81s.61.33.8.71a7,7,0,0,1,.59,1.2,8,8,0,0,1,.49,2.21C289.42,447.59,289.21,448.41,289.33,448.44Z"
      style="fill: rgb(38, 50, 56); transform-origin: 288.048px 444.92px"
      id="elem1w8xi9m7h"
      className="animable"
    ></path>
    <path
      d="M345.84,434.65l.71,35.87-44.62,1.12c.15-4.27,23-13.41,23-13.41l-1.4-23Z"
      style="fill: rgb(255, 90, 90); transform-origin: 324.24px 453.145px"
      id="elxlhrhztt2x"
      className="animable"
    ></path>
    <g id="elsfk5maa9a9">
      <g style="opacity: 0.6; transform-origin: 338.303px 457.636px" className="animable">
        <path
          d="M338.7,456A1.85,1.85,0,0,1,340,458a1.75,1.75,0,0,1-2,1.32,1.91,1.91,0,0,1-1.38-2.17,1.8,1.8,0,0,1,2.25-1.14"
          style="fill: rgb(255, 255, 255); transform-origin: 338.303px 457.636px"
          id="elf4vlbp99l4"
          className="animable"
        ></path>
      </g>
    </g>
    <g id="elukaj0tzkj8b">
      <g style="opacity: 0.6; transform-origin: 324.225px 469.275px" className="animable">
        <path
          d="M346.55,470.52l-.21-3.61-42.71,2.42s-2,.91-1.7,2.31Z"
          style="fill: rgb(255, 255, 255); transform-origin: 324.225px 469.275px"
          id="elb252rrfw1tk"
          className="animable"
        ></path>
      </g>
    </g>
    <path
      d="M324.22,458c0,.22,1.11.29,2.2,1s1.68,1.57,1.88,1.48-.16-1.34-1.49-2.13S324.17,457.82,324.22,458Z"
      style="fill: rgb(38, 50, 56); transform-origin: 326.285px 459.148px"
      id="ellf3rcvaed5n"
      className="animable"
    ></path>
    <path
      d="M319.59,460.08c0,.21.91.56,1.67,1.46s1,1.87,1.22,1.86.33-1.25-.64-2.36S319.59,459.87,319.59,460.08Z"
      style="fill: rgb(38, 50, 56); transform-origin: 321.11px 461.692px"
      id="elr8pscxedv1b"
      className="animable"
    ></path>
    <path
      d="M317.07,465.74c.2.05.48-1.05-.11-2.23s-1.62-1.63-1.71-1.45.56.81,1,1.79S316.86,465.73,317.07,465.74Z"
      style="fill: rgb(38, 50, 56); transform-origin: 316.278px 463.882px"
      id="elzzptbds2hdg"
      className="animable"
    ></path>
    <path
      d="M324.49,452.75c.09.2,1.08-.12,2.32-.07s2.2.42,2.31.23-.83-1-2.29-1S324.37,452.59,324.49,452.75Z"
      style="fill: rgb(38, 50, 56); transform-origin: 326.804px 452.437px"
      id="elqi6snzuy62"
      className="animable"
    ></path>
    <path
      d="M325.42,447.43a4.12,4.12,0,0,0,2.23-.06,10.2,10.2,0,0,0,2.32-.78,11.56,11.56,0,0,0,1.27-.71,2.82,2.82,0,0,0,.66-.55.94.94,0,0,0,.07-1.16,1.21,1.21,0,0,0-1-.47,3.21,3.21,0,0,0-.83.13,7.75,7.75,0,0,0-1.38.52,8,8,0,0,0-2,1.4c-1,1-1.34,1.81-1.27,1.85s.59-.63,1.63-1.45a8.9,8.9,0,0,1,2-1.17,9.46,9.46,0,0,1,1.27-.43c.47-.13.88-.15,1,.06s0,.11,0,.25a2.39,2.39,0,0,1-.49.4,11.18,11.18,0,0,1-1.16.7,12.74,12.74,0,0,1-2.14.89A15.7,15.7,0,0,0,325.42,447.43Z"
      style="fill: rgb(38, 50, 56); transform-origin: 328.779px 445.65px"
      id="elitlx8gup7u9"
      className="animable"
    ></path>
    <path
      d="M325.71,447.74a3.53,3.53,0,0,0,.53-2.17,7.13,7.13,0,0,0-1-3.79,1.85,1.85,0,0,0-1.45-1.09,1,1,0,0,0-.92.65,3.1,3.1,0,0,0-.21.82,5.4,5.4,0,0,0,0,1.51,5.11,5.11,0,0,0,1,2.28c.9,1.14,1.82,1.37,1.84,1.3s-.7-.51-1.4-1.61a5.22,5.22,0,0,1-.76-2.08,4.65,4.65,0,0,1,0-1.29c.06-.48.23-.87.41-.82s.6.34.8.71a8.23,8.23,0,0,1,.58,1.2,8.14,8.14,0,0,1,.49,2.22C325.8,446.89,325.59,447.71,325.71,447.74Z"
      style="fill: rgb(38, 50, 56); transform-origin: 324.429px 444.215px"
      id="eliecuxkvmjkg"
      className="animable"
    ></path>
    <path
      d="M266,259.07c-.43,0,2,45,3.88,56.09,2.89,17.44,12.51,136.76,12.51,136.76h29.24l.6-166,5.31,63.9,2,102.44,28.58-.76,3-108.67c-.9-8.11,1.53-82.7,1.53-82.7Z"
      style="fill: rgb(38, 50, 56); transform-origin: 309.3px 355.665px"
      id="elnb52x90zytj"
      className="animable"
    ></path>
    <path
      d="M279.23,91.14c-3.45-1.6-5.61-5.13-6.88-8.71S270.5,75,269.09,71.51c-1-2.63.1-6.82-2.26-8.39-2.95-1.95-2.92-7.15-1.78-9.74,1.24-2.82,4.61-4.92,4.84-5.81.6-2.35-1.44-4.89-.68-7.19,1.78-5.41,6.19-4.7,6.19-4.7,2-2.43,4.72-5.65,9.13-6.79,4.77-1.23,11.82-2.15,16.07.35s7.38,4.18,8.75,8.92"
      style="fill: rgb(38, 50, 56); transform-origin: 286.842px 59.3991px"
      id="elcj6mwgt8sp8"
      className="animable"
    ></path>
    <path
      d="M318.55,102.8l-10,17.18-13.82,13.8-8.11-11.14,0-11.23,0-9.41s-12.49-1.72-12.86-14.18c-.18-6,.46-18.44,1.18-29.67a23.23,23.23,0,0,1,22.78-21.76l1.2,0c13,.54,19.78,11.86,18.88,24.82l.82,41.61"
      style="fill: rgb(206, 148, 122); transform-origin: 296.175px 85.085px"
      id="el00v3lo645v78m"
      className="animable"
    ></path>
    <path
      d="M278.52,67.37a1.8,1.8,0,0,0,1.75,1.77,1.71,1.71,0,0,0,1.81-1.64,1.8,1.8,0,0,0-1.75-1.77A1.71,1.71,0,0,0,278.52,67.37Z"
      style="fill: rgb(38, 50, 56); transform-origin: 280.3px 67.435px"
      id="el26hzeuxmzq6"
      className="animable"
    ></path>
    <path
      d="M277.45,63.54c.23.23,1.56-.79,3.47-.82s3.34.91,3.54.67-.13-.52-.75-1a4.86,4.86,0,0,0-2.84-.83,4.69,4.69,0,0,0-2.75,1C277.54,63,277.34,63.44,277.45,63.54Z"
      style="fill: rgb(38, 50, 56); transform-origin: 280.97px 62.5661px"
      id="elh36pizwnewq"
      className="animable"
    ></path>
    <path
      d="M296.51,66.94a1.78,1.78,0,0,0,1.74,1.77,1.71,1.71,0,0,0,1.81-1.64,1.79,1.79,0,0,0-1.75-1.77A1.7,1.7,0,0,0,296.51,66.94Z"
      style="fill: rgb(38, 50, 56); transform-origin: 298.285px 67.005px"
      id="elo5krnpehdo"
      className="animable"
    ></path>
    <path
      d="M296.53,62.68c.2.25,1.63-.62,3.54-.44s3.21,1.26,3.44,1-.07-.54-.64-1a4.83,4.83,0,0,0-2.73-1.13,4.7,4.7,0,0,0-2.85.64C296.67,62.16,296.43,62.56,296.53,62.68Z"
      style="fill: rgb(38, 50, 56); transform-origin: 300.048px 62.1845px"
      id="elk2r9y47p4xm"
      className="animable"
    ></path>
    <path
      d="M289.77,78.55a12.8,12.8,0,0,0-3.12-.51c-.49,0-.95-.13-1-.46a2.58,2.58,0,0,1,.3-1.46c.44-1.19.9-2.44,1.39-3.74,1.91-5.34,3.29-9.72,3.08-9.8s-1.95,4.19-3.87,9.53l-1.32,3.76A2.9,2.9,0,0,0,285,77.8a1.24,1.24,0,0,0,.82.7,3.28,3.28,0,0,0,.83.1A12.42,12.42,0,0,0,289.77,78.55Z"
      style="fill: rgb(38, 50, 56); transform-origin: 287.685px 70.6269px"
      id="elppbvwaau6h9"
      className="animable"
    ></path>
    <path
      d="M295.43,79.78c-.31,0-.28,2.07-2,3.57s-4,1.32-4,1.61c0,.13.5.39,1.43.4a5.16,5.16,0,0,0,3.33-1.22,4.52,4.52,0,0,0,1.57-3C295.82,80.28,295.57,79.76,295.43,79.78Z"
      style="fill: rgb(38, 50, 56); transform-origin: 292.6px 82.5697px"
      id="eldjskho0nhl6"
      className="animable"
    ></path>
    <path
      d="M296.65,56.37c.16.53,2.08.41,4.31.83s4,1.16,4.32.71c.15-.21-.13-.72-.83-1.28a7.32,7.32,0,0,0-3.15-1.34,7.2,7.2,0,0,0-3.42.17C297,55.74,296.59,56.12,296.65,56.37Z"
      style="fill: rgb(38, 50, 56); transform-origin: 300.982px 56.6051px"
      id="ellcq0bbjllf"
      className="animable"
    ></path>
    <path
      d="M278.26,58.64c.34.43,1.66,0,3.24-.09s2.94.24,3.24-.22c.13-.22-.09-.66-.68-1.06a4.69,4.69,0,0,0-5.22.25C278.28,58,278.11,58.43,278.26,58.64Z"
      style="fill: rgb(38, 50, 56); transform-origin: 281.492px 57.7116px"
      id="eljok30l9h0kb"
      className="animable"
    ></path>
    <path
      d="M308.42,37.27a9.43,9.43,0,0,1-11.13,9.31c-2.11-.38-4.42-1.45-6.24-.32s-2,4.07-3.7,5.55c-2.43,2.11-6.3.13-9.39,1-2.38.71-3.87,3-5.45,4.9s-4,3.74-6.34,3a28.24,28.24,0,0,1,.94-6.36,9.45,9.45,0,0,1,3.62-5.19,33.93,33.93,0,0,0,3-1.77c2-1.6,2.44-4.38,3.66-6.61a10.35,10.35,0,0,1,7.88-5.22c2.72-.28,5.51.53,8.16-.13,1.95-.5,3.66-1.77,5.64-2.14,3.86-.74,7.44,2,10.24,4.79"
      style="fill: rgb(38, 50, 56); transform-origin: 287.74px 47.0225px"
      id="elzxyz0ghxd7p"
      className="animable"
    ></path>
    <path
      d="M296.08,42.76c1.73-.5,5.27-1.62,6.19-3.12,2-3.26,5.57-5.48,9.2-5.28a8.71,8.71,0,0,1,7.85,6.89,12.56,12.56,0,0,1,10.78,6.94,14.55,14.55,0,0,1-.39,13.53,7.13,7.13,0,0,0-1.41,3.33c0,1.54,1.12,2.75,1.92,4,2.18,3.46,2,8.22.33,12s-2.88,5.09-5.28,5.85c-4.71,1.47,0,10.94-7.86,10.94l-1.58-28a2.48,2.48,0,0,1-.73.27c-4.64,1.05-5.25-8-4.21-10.59a27,27,0,0,1-4.65-4.89c-1.28-1.89-2.41-7-2.14-9.37C302.43,45.32,295.32,43,296.08,42.76Z"
      style="fill: rgb(38, 50, 56); transform-origin: 313.926px 66.0938px"
      id="elzlcphwpji6"
      className="animable"
    ></path>
    <path
      d="M315.18,70c.21-.1,8.52-2.68,8.39,5.84s-8.66,6.64-8.67,6.4S315.18,70,315.18,70Z"
      style="fill: rgb(206, 148, 122); transform-origin: 319.236px 76.0687px"
      id="el63kvecq9ljv"
      className="animable"
    ></path>
    <path
      d="M317.55,79s.15.11.4.23a1.46,1.46,0,0,0,1.11,0c.91-.32,1.69-1.74,1.75-3.27a5,5,0,0,0-.38-2.13,1.75,1.75,0,0,0-1.1-1.16.77.77,0,0,0-.89.39c-.11.24-.06.41-.11.42s-.18-.14-.11-.49a1,1,0,0,1,.35-.53,1.12,1.12,0,0,1,.82-.21,2.08,2.08,0,0,1,1.53,1.35,5,5,0,0,1,.48,2.38c-.08,1.72-1,3.31-2.22,3.65a1.59,1.59,0,0,1-1.35-.24C317.57,79.24,317.52,79.05,317.55,79Z"
      style="fill: rgb(165, 99, 73); transform-origin: 319.474px 75.9635px"
      id="el6xfgs1cq8r"
      className="animable"
    ></path>
    <path
      d="M329.32,83.58a5.28,5.28,0,0,0,1,8,3.5,3.5,0,0,1-2.59.89c-.33,1.07,1.18,1.81,1.49,2.89a1.91,1.91,0,0,1-.6,1.83,4.8,4.8,0,0,1-1.75,1,19.46,19.46,0,0,1-5.89,1.13,4,4,0,0,1-3.24-1,4.39,4.39,0,0,1-.72-2.77l-.21-7.27a3.4,3.4,0,0,1,.38-2.07,3.44,3.44,0,0,1,2.11-1.12l10.33-2.64"
      style="fill: rgb(38, 50, 56); transform-origin: 323.55px 90.9041px"
      id="ely93ku76mvb"
      className="animable"
    ></path>
    <path
      d="M355.52,249.71c-1.33-7.8-9.32-45.46-9.32-45.46l4.94-90c-2.28-1.53-32.61-12.53-32.61-12.53s-4.67,13.86-19.51,16.9-12.48-8.07-12.48-8.07-29,15.49-30.69,16.63-8.91,30.24-8.91,30.24l-5.46,18.83,22.93,5.33s.57,44.89,0,48.12-1.72,29.3-1.72,29.3l90,1.14S356.85,257.51,355.52,249.71Z"
      style="fill: rgb(255, 90, 90); transform-origin: 298.631px 180.93px"
      id="elpuoh3bzfs6g"
      className="animable"
    ></path>
    <path
      d="M351.14,114.28s5.55,5.44,7.41,10.82,7.61,40.66,7.61,40.66-31.56,4.46-31.56,3.9,2.78-20.24,3.71-26.36S351.14,114.28,351.14,114.28Z"
      style="fill: rgb(255, 90, 90); transform-origin: 350.38px 141.994px"
      id="el0fsd4svbqfj8"
      className="animable"
    ></path>
    <path
      d="M283.4,157.65l-2.09,4.86H280l-2.08-4.86h1.49l1.32,3.17,1.35-3.17Z"
      style="fill: rgb(255, 255, 255); transform-origin: 280.66px 160.08px"
      id="elgma1h1ph5d6"
      className="animable"
    ></path>
    <path
      d="M283.37,160.08a2.71,2.71,0,1,1,2.7,2.53A2.54,2.54,0,0,1,283.37,160.08Zm4,0a1.32,1.32,0,1,0-1.31,1.39A1.3,1.3,0,0,0,287.38,160.08Z"
      style="fill: rgb(255, 255, 255); transform-origin: 286.074px 159.903px"
      id="el3c4ho02ymv"
      className="animable"
    ></path>
    <path
      d="M289.49,157.65h1.37v3.77h2.32v1.09h-3.69Z"
      style="fill: rgb(255, 255, 255); transform-origin: 291.335px 160.08px"
      id="elbwu2okdy93m"
      className="animable"
    ></path>
    <path
      d="M293.63,160.35v-2.7H295v2.65c0,.84.35,1.17.93,1.17s.91-.33.91-1.17v-2.65h1.36v2.7a2.29,2.29,0,0,1-4.57,0Z"
      style="fill: rgb(255, 255, 255); transform-origin: 295.915px 160.069px"
      id="eltn66tuwhy6h"
      className="animable"
    ></path>
    <path
      d="M303.75,157.65v4.86h-1.13l-2.15-2.59v2.59h-1.35v-4.86h1.13l2.15,2.59v-2.59Z"
      style="fill: rgb(255, 255, 255); transform-origin: 301.435px 160.08px"
      id="el8me5gfu7vw8"
      className="animable"
    ></path>
    <path
      d="M305.75,158.74h-1.49v-1.09h4.35v1.09h-1.48v3.77h-1.38Z"
      style="fill: rgb(255, 255, 255); transform-origin: 306.435px 160.08px"
      id="el0qxpr9ja9u4k"
      className="animable"
    ></path>
    <path
      d="M313,161.45v1.06h-3.9v-4.86h3.81v1.06h-2.45v.82h2.16v1h-2.16v.89Z"
      style="fill: rgb(255, 255, 255); transform-origin: 311.05px 160.08px"
      id="elmuf6h758jo"
      className="animable"
    ></path>
    <path
      d="M317.69,161.45v1.06h-3.9v-4.86h3.81v1.06h-2.45v.82h2.16v1h-2.16v.89Z"
      style="fill: rgb(255, 255, 255); transform-origin: 315.74px 160.08px"
      id="eljbv8elofti"
      className="animable"
    ></path>
    <path
      d="M320.57,161.22h-.75v1.29h-1.37v-4.86h2.22c1.33,0,2.16.69,2.16,1.8a1.62,1.62,0,0,1-.95,1.53l1.05,1.53h-1.48Zm0-2.49h-.77v1.43h.77c.57,0,.85-.27.85-.71S321.16,158.73,320.59,158.73Z"
      style="fill: rgb(255, 255, 255); transform-origin: 320.69px 160.08px"
      id="elaml0iblab98"
      className="animable"
    ></path>
    <path
      d="M264.49,196.56a1.53,1.53,0,0,1-.08-.49c0-.39-.08-.87-.14-1.44-.09-1.24-.19-3-.26-5.28-.15-4.47-.2-10.63-.15-17.45s.17-13,.3-17.44c.07-2.17.14-4,.18-5.28,0-.58.06-1.05.08-1.44a1.82,1.82,0,0,1,.07-.5,1.77,1.77,0,0,1,0,.5c0,.39,0,.87,0,1.44,0,1.33,0,3.12,0,5.29,0,4.53-.09,10.66-.15,17.44s-.05,13,0,17.43c0,2.23.06,4,.1,5.28,0,.58,0,1,0,1.44A1.91,1.91,0,0,1,264.49,196.56Z"
      style="fill: rgb(38, 50, 56); transform-origin: 264.174px 171.9px"
      id="elg4mr9ihm6pg"
      className="animable"
    ></path>
    <path
      d="M337.45,137.87a4.46,4.46,0,0,1,0,1.17c0,.87,0,1.93-.05,3.19,0,2.82-.06,6.48-.1,10.54s-.11,7.84-.25,10.54c-.07,1.35-.14,2.44-.22,3.19a6,6,0,0,1-.17,1.16,4.46,4.46,0,0,1,0-1.17c0-.87,0-1.93,0-3.19,0-2.82.06-6.48.1-10.54s.12-7.84.25-10.54c.07-1.35.15-2.44.22-3.19A6,6,0,0,1,337.45,137.87Z"
      style="fill: rgb(38, 50, 56); transform-origin: 337.055px 152.765px"
      id="elw8pvtt84oar"
      className="animable"
    ></path>
    <path
      d="M350.19,115a23.26,23.26,0,0,0-10.91,8,5.87,5.87,0,0,1,1-1.75,16.51,16.51,0,0,1,3.52-3.45,16.88,16.88,0,0,1,4.36-2.3A5.81,5.81,0,0,1,350.19,115Z"
      style="fill: rgb(38, 50, 56); transform-origin: 344.735px 119px"
      id="elmxcvhn5j03j"
      className="animable"
    ></path>
    <path
      d="M262.82,137.26c-.13.08-1.45-2.2-3.4-4.77s-3.76-4.49-3.65-4.6a25.95,25.95,0,0,1,7,9.37Z"
      style="fill: rgb(38, 50, 56); transform-origin: 259.293px 132.576px"
      id="elpyiqewmw8q"
      className="animable"
    ></path>
    <path
      d="M318.05,193.69a2.78,2.78,0,0,1-.32.46c-.26.33-.58.75-1,1.25-.85,1.09-2.13,2.63-3.75,4.49a180.43,180.43,0,0,1-13.45,13.86,182.82,182.82,0,0,1-14.85,12.34c-2,1.47-3.62,2.63-4.77,3.39l-1.33.88a2.25,2.25,0,0,1-.48.28,2.68,2.68,0,0,1,.42-.36l1.27-1c1.12-.82,2.71-2,4.67-3.53,3.9-3,9.19-7.31,14.72-12.42s10.22-10.05,13.53-13.72c1.65-1.83,3-3.33,3.87-4.38l1-1.19C317.9,193.81,318,193.68,318.05,193.69Z"
      style="fill: rgb(38, 50, 56); transform-origin: 298.075px 212.165px"
      id="elz1os0tdxyro"
      className="animable"
    ></path>
    <path
      d="M356.07,309,368,272.47c1.78-5.46,3.73-11.18,8-15,2.49-2.24,6.28-3.7,9.18-2a7.07,7.07,0,0,1,3.12,5.78,20.11,20.11,0,0,1-1.11,6.72c-4.8,16.63-10.64,32.93-16.71,49.14l.62-1.12"
      style="fill: rgb(255, 90, 90); transform-origin: 372.185px 285.919px"
      id="elffbfyhzm1h"
      className="animable"
    ></path>
    <path
      d="M372,300.64c0,.16-1.89-.25-4-1.16s-3.72-1.93-3.63-2.08,1.77.62,3.87,1.5S372.07,300.47,372,300.64Z"
      style="fill: rgb(38, 50, 56); transform-origin: 368.184px 299.028px"
      id="elkelhsab3ey"
      className="animable"
    ></path>
    <path
      d="M376,291.82c-.07.16-2-.63-4.45-1.59s-4.38-1.75-4.33-1.92,2.12.36,4.56,1.34S376,291.66,376,291.82Z"
      style="fill: rgb(38, 50, 56); transform-origin: 371.61px 290.06px"
      id="elitxo92riw1e"
      className="animable"
    ></path>
    <path
      d="M379.66,284.53c-.1.15-2-1.07-4.55-2.16s-4.72-1.65-4.68-1.84,2.33.13,4.93,1.26S379.76,284.4,379.66,284.53Z"
      style="fill: rgb(38, 50, 56); transform-origin: 375.047px 282.511px"
      id="elovpn7sgd40k"
      className="animable"
    ></path>
    <path
      d="M382,275.34c-.12.14-1.76-1.21-4.06-2.38s-4.33-1.74-4.29-1.92,2.2.13,4.58,1.36S382.11,275.23,382,275.34Z"
      style="fill: rgb(38, 50, 56); transform-origin: 377.828px 273.171px"
      id="el8s3v9ssdb6u"
      className="animable"
    ></path>
    <rect
      x="352.27"
      y="277.76"
      width="3.56"
      height="7.05"
      style="fill: rgb(38, 50, 56); transform-origin: 354.05px 281.285px"
      id="elg19vtdgo1qb"
      className="animable"
    ></rect>
    <path
      d="M351.85,298.57V283.86h4.34v12.27s4.57.13,5.14,2.14c1.25,4.42.7,14.36.7,14.36Z"
      style="fill: rgb(69, 90, 100); transform-origin: 357px 298.245px"
      id="el88zy82k1do9"
      className="animable"
    ></path>
    <path
      d="M389.4,337.66c-1.23-7.39-3.12-14.7-3.48-22.18-.24-5.13.25-10.3-.39-15.4-.77-6.14-3.14-11.95-5.49-17.67-1.52-3.71-3.18-7.6-6.35-10.07a11.57,11.57,0,0,0-6.64-2.31v0c-4.36-1.79-16.32-2.3-20.1,5.72-2,4.26-2.24,9.11-3.39,13.69-1.54,6.16-.43,8.19-2.45,14.21-4.29,12.87-10.8,28.84-8.9,42.28.37,2.61,4.72,6.91,6.2,9.09,2.13,3.15,6,4.56,9.76,5.36A51.59,51.59,0,0,0,379.75,357c3.54-1.59,7.07-3.75,8.86-7.19C390.51,346.15,390.08,341.74,389.4,337.66Zm-11.34-41.5c-2,1.68-4.92.86-7.51.73-3.11-.16-6.15.85-9.22,1.38s-6.5.51-9-1.39a9.2,9.2,0,0,1-3.2-6.15,24.39,24.39,0,0,1,.39-7.07,19.49,19.49,0,0,1,1.38-5.28,7.29,7.29,0,0,1,3.74-3.83c2-1,9.22-1.66,12-2.08a17.86,17.86,0,0,1,6.28,5.25,42.5,42.5,0,0,1,5.35,10,13.8,13.8,0,0,1,1.25,4.32A4.91,4.91,0,0,1,378.06,296.16Z"
      style="fill: rgb(250, 250, 250); transform-origin: 360.924px 315.203px"
      id="ell4ob9wbr01i"
      className="animable"
    ></path>
    <path
      d="M389.4,337.66c-1.23-7.39-3.12-14.7-3.48-22.18-.24-5.13.25-10.3-.39-15.4-.77-6.14-3.14-11.95-5.49-17.67-1.52-3.71-3.18-7.6-6.35-10.07a11.57,11.57,0,0,0-6.64-2.31v0c-4.36-1.79-16.32-2.3-20.1,5.72-2,4.26-2.24,9.11-3.39,13.69-1.54,6.16-.43,8.19-2.45,14.21-4.29,12.87-10.8,28.84-8.9,42.28.37,2.61,4.72,6.91,6.2,9.09,2.13,3.15,6,4.56,9.76,5.36A51.59,51.59,0,0,0,379.75,357c3.54-1.59,7.07-3.75,8.86-7.19C390.51,346.15,390.08,341.74,389.4,337.66Zm-11.34-41.5c-2,1.68-4.92.86-7.51.73-3.11-.16-6.15.85-9.22,1.38s-6.5.51-9-1.39a9.2,9.2,0,0,1-3.2-6.15,24.39,24.39,0,0,1,.39-7.07,19.49,19.49,0,0,1,1.38-5.28,7.29,7.29,0,0,1,3.74-3.83c2-1,9.22-1.66,12-2.08a17.86,17.86,0,0,1,6.28,5.25,42.5,42.5,0,0,1,5.35,10,13.8,13.8,0,0,1,1.25,4.32A4.91,4.91,0,0,1,378.06,296.16Z"
      style="fill: none; transform-origin: 360.924px 315.203px"
      id="eltrjtm5k1tsl"
      className="animable"
    ></path>
    <path
      d="M378.06,296.16a4.7,4.7,0,0,0,1.09-1.75,5.83,5.83,0,0,0,.27-2.44,11.75,11.75,0,0,0-.88-3.22,63.83,63.83,0,0,0-3.89-8.15,19.72,19.72,0,0,0-8.09-7.91l.14,0-5.85.77c-1,.14-2,.3-3.06.49a14.12,14.12,0,0,0-3,.82h0a7,7,0,0,0-3.55,3.58,17,17,0,0,0-1.27,4.47c-.25,1.53-.5,3-.6,4.52a15.6,15.6,0,0,0,.24,4.34,9.52,9.52,0,0,0,1.69,3.74,7.14,7.14,0,0,0,3.12,2.29,10.67,10.67,0,0,0,3.67.61,31.32,31.32,0,0,0,6.71-1,22.54,22.54,0,0,1,5.64-.63c1.67.1,3.08.36,4.24.36a5.84,5.84,0,0,0,2.6-.47c.55-.27.79-.49.81-.47a3,3,0,0,1-.76.57,5.8,5.8,0,0,1-2.65.57c-1.18,0-2.61-.2-4.25-.27a22.76,22.76,0,0,0-5.55.7,31.19,31.19,0,0,1-6.8,1,10.73,10.73,0,0,1-3.82-.62,7.44,7.44,0,0,1-3.33-2.41,12,12,0,0,1-2.07-8.41c.1-1.52.35-3,.6-4.58a17.81,17.81,0,0,1,1.31-4.6,7.48,7.48,0,0,1,3.84-3.85h0a14.48,14.48,0,0,1,3.15-.85c1-.19,2.06-.35,3.08-.49l5.84-.75h.08l.07,0a19.89,19.89,0,0,1,8.22,8.14,59.18,59.18,0,0,1,3.82,8.25,11.75,11.75,0,0,1,.84,3.31,5.83,5.83,0,0,1-.35,2.51,4.21,4.21,0,0,1-.83,1.35A2.06,2.06,0,0,1,378.06,296.16Z"
      style="fill: rgb(38, 50, 56); transform-origin: 364.245px 285.401px"
      id="el9ucf5mi84gg"
      className="animable"
    ></path>
    <path
      d="M389.4,337.66s.2.85.41,2.5a25.93,25.93,0,0,1,.24,3.07,16.16,16.16,0,0,1-.43,4.18,11.08,11.08,0,0,1-2.41,4.67,17.64,17.64,0,0,1-4.93,3.85,49.37,49.37,0,0,1-14.4,4.91,51.59,51.59,0,0,1-18.43,0,29.45,29.45,0,0,1-4.93-1.25,14.36,14.36,0,0,1-4.61-2.56,10.56,10.56,0,0,1-1.8-2c-.51-.72-1.09-1.41-1.67-2.11a44.11,44.11,0,0,1-3.38-4.4,6.93,6.93,0,0,1-1.1-2.67c-.09-.95-.23-1.9-.26-2.86a43.61,43.61,0,0,1,.1-5.82,72,72,0,0,1,2.08-11.79c1-3.94,2.25-7.89,3.59-11.86.68-2,1.37-4,2.06-6s1.43-4,2-6.08a36,36,0,0,0,.88-6.38,37.83,37.83,0,0,1,1.09-6.34c.95-4.1,1.28-8.34,2.88-12.21a10.63,10.63,0,0,1,.68-1.4,8.17,8.17,0,0,1,.85-1.31,10.52,10.52,0,0,1,2.2-2.17,14.82,14.82,0,0,1,5.53-2.41,22,22,0,0,1,5.87-.48,18.69,18.69,0,0,1,5.66,1.09l.15,0V270l-.23-.24a11.58,11.58,0,0,1,7.58,3.06,20,20,0,0,1,4.36,6.56A131.06,131.06,0,0,1,384.2,293a44.12,44.12,0,0,1,1.45,6.53,48,48,0,0,1,.39,6.23c0,4-.14,7.68.11,11a87,87,0,0,0,1.13,8.84c.44,2.56.86,4.75,1.19,6.53s.57,3.14.73,4.07c.07.45.12.8.16,1.05s0,.36,0,.36,0-.12-.08-.35-.12-.6-.2-1.05c-.19-.94-.45-2.3-.8-4.06s-.8-3.95-1.27-6.51a88.7,88.7,0,0,1-1.19-8.86c-.27-3.34-.12-7-.16-11a49.17,49.17,0,0,0-.43-6.18,43.67,43.67,0,0,0-1.45-6.47,134.49,134.49,0,0,0-5.22-13.56,19.5,19.5,0,0,0-4.28-6.4,11.11,11.11,0,0,0-7.27-2.92h-.23V270l.15.22a18.25,18.25,0,0,0-5.5-1,21.81,21.81,0,0,0-5.74.47,14.19,14.19,0,0,0-5.34,2.34,10,10,0,0,0-2.1,2.06,7.8,7.8,0,0,0-.8,1.25,10.68,10.68,0,0,0-.66,1.36c-1.55,3.76-1.89,8-2.84,12.12a36.7,36.7,0,0,0-1.08,6.27,36.76,36.76,0,0,1-.89,6.46c-.56,2.11-1.31,4.11-2,6.13s-1.37,4-2.06,6c-1.34,4-2.58,7.9-3.58,11.83a71.39,71.39,0,0,0-2.09,11.7,44.32,44.32,0,0,0-.11,5.75c0,.95.18,1.89.26,2.82a6.19,6.19,0,0,0,1,2.48,43.25,43.25,0,0,0,3.33,4.36c.58.71,1.16,1.4,1.69,2.14a9.8,9.8,0,0,0,1.72,2,14,14,0,0,0,4.46,2.48,30.45,30.45,0,0,0,4.86,1.25,51.29,51.29,0,0,0,18.28.08,49.31,49.31,0,0,0,14.33-4.81,17.7,17.7,0,0,0,4.89-3.75,11,11,0,0,0,2.39-4.56,20.19,20.19,0,0,0,.29-7.19c-.1-.81-.18-1.43-.23-1.87S389.4,337.66,389.4,337.66Z"
      style="fill: rgb(38, 50, 56); transform-origin: 360.851px 315.19px"
      id="el72te7823ye7"
      className="animable"
    ></path>
    <path
      d="M389.4,337.66c-1.23-7.39-3.12-14.7-3.48-22.18-.24-5.13.25-10.3-.39-15.4-.77-6.14-3.14-11.95-5.49-17.67-1.52-3.71-3.18-7.6-6.35-10.07a11.57,11.57,0,0,0-6.64-2.31v0c-4.36-1.79-16.32-2.3-20.1,5.72-2,4.26-2.24,9.11-3.39,13.69-1.54,6.16-.43,8.19-2.45,14.21-4.29,12.87-10.8,28.84-8.9,42.28.37,2.61,4.72,6.91,6.2,9.09,2.13,3.15,6,4.56,9.76,5.36A51.59,51.59,0,0,0,379.75,357c3.54-1.59,7.07-3.75,8.86-7.19C390.51,346.15,390.08,341.74,389.4,337.66Zm-11.34-41.5c-2,1.68-4.92.86-7.51.73-3.11-.16-6.15.85-9.22,1.38s-6.5.51-9-1.39a9.2,9.2,0,0,1-3.2-6.15,24.39,24.39,0,0,1,.39-7.07,19.49,19.49,0,0,1,1.38-5.28,7.29,7.29,0,0,1,3.74-3.83c2-1,9.22-1.66,12-2.08a17.86,17.86,0,0,1,6.28,5.25,42.5,42.5,0,0,1,5.35,10,13.8,13.8,0,0,1,1.25,4.32A4.91,4.91,0,0,1,378.06,296.16Z"
      style="fill: none; transform-origin: 360.924px 315.203px"
      id="el0zxpm834e53"
      className="animable"
    ></path>
    <path
      d="M378.06,296.16a5,5,0,0,0,1.07-1.75,5.85,5.85,0,0,0,.27-2.44,11.39,11.39,0,0,0-.89-3.21,62.63,62.63,0,0,0-3.9-8.14,19.59,19.59,0,0,0-8.08-7.89l.17,0-5.85.77c-1,.15-2,.3-3.05.49a14.63,14.63,0,0,0-3,.81h0a7,7,0,0,0-3.52,3.56,16.84,16.84,0,0,0-1.26,4.46c-.26,1.52-.5,3-.61,4.52a11.56,11.56,0,0,0,1.92,8,7,7,0,0,0,3.1,2.27,10.77,10.77,0,0,0,3.65.62,32,32,0,0,0,6.7-1,22.15,22.15,0,0,1,5.65-.63c1.68.1,3.08.37,4.24.37a5.78,5.78,0,0,0,2.59-.46c.55-.26.79-.48.82-.46a2.68,2.68,0,0,1-.76.58,5.65,5.65,0,0,1-2.65.58c-1.18,0-2.61-.2-4.25-.26a22.73,22.73,0,0,0-5.54.71,31.17,31.17,0,0,1-6.81,1.06,11.21,11.21,0,0,1-3.83-.62,7.5,7.5,0,0,1-3.36-2.43,12.1,12.1,0,0,1-2.08-8.45c.1-1.52.35-3,.6-4.58a17,17,0,0,1,1.32-4.62,7.52,7.52,0,0,1,3.86-3.87l0,0a14,14,0,0,1,3.16-.86c1-.2,2.07-.35,3.08-.49l5.85-.75h.09l.08,0a20,20,0,0,1,8.24,8.16,60.24,60.24,0,0,1,3.81,8.26,11.36,11.36,0,0,1,.83,3.32,5.9,5.9,0,0,1-.36,2.52,4.21,4.21,0,0,1-.83,1.35A1.89,1.89,0,0,1,378.06,296.16Z"
      style="fill: rgb(38, 50, 56); transform-origin: 364.22px 285.385px"
      id="elqheibn4psqk"
      className="animable"
    ></path>
    <path
      d="M381.3,327.48a4,4,0,0,0-2.23-3.11c-1.86-.81-4,.31-5.35,1.85s-2.08,3.48-3.29,5.09a11.34,11.34,0,0,1-9.06,4.46c-4.26,0-8.51-2.51-12.58-1.25-1.39.43-2.78,1.52-2.79,3a4,4,0,0,0,1.29,2.6,13.93,13.93,0,0,0,7.63,4.18,38.72,38.72,0,0,0,14.65-3.42c5.34-2.28,9.27-5.1,11.11-9.48A7.3,7.3,0,0,0,381.3,327.48Z"
      style="fill: rgb(224, 224, 224); transform-origin: 363.676px 334.2px"
      id="elweb5i17v5yl"
      className="animable"
    ></path>
    <path
      d="M380.6,333.48a4.93,4.93,0,0,1-.85.94,30.34,30.34,0,0,1-2.63,2.27,38,38,0,0,1-21.26,7.8,27.21,27.21,0,0,1-3.48,0,5.08,5.08,0,0,1-1.26-.16c0-.12,1.81,0,4.71-.25a41.86,41.86,0,0,0,21-7.72C379.21,334.64,380.53,333.39,380.6,333.48Z"
      style="fill: rgb(38, 50, 56); transform-origin: 365.86px 339.011px"
      id="el0el5sjgz9tw"
      className="animable"
    ></path>
    <path
      d="M379.13,310.9a7,7,0,0,1-.15,1.59c-.14,1-.36,2.48-.72,4.28a39.88,39.88,0,0,1-1.75,6.23,23.73,23.73,0,0,1-3.94,6.9,16.13,16.13,0,0,1-6.41,4.7,15.82,15.82,0,0,1-6.41,1,16.22,16.22,0,0,1-4.31-.75c-.49-.16-.86-.31-1.11-.42s-.37-.18-.36-.2a24.58,24.58,0,0,0,5.79.92,16,16,0,0,0,6.19-1.13,15.74,15.74,0,0,0,6.14-4.57c3.56-4.26,4.89-9.31,5.73-12.81.42-1.78.71-3.23.92-4.24A7.79,7.79,0,0,1,379.13,310.9Z"
      style="fill: rgb(38, 50, 56); transform-origin: 366.55px 323.261px"
      id="el4anjuvpn4m"
      className="animable"
    ></path>
    <path
      d="M346.81,328.4a5.33,5.33,0,0,1-1.58-1.59,13.84,13.84,0,0,1-2.37-4.86,14.2,14.2,0,0,1-.38-5.41,5.57,5.57,0,0,1,.58-2.16c.21,0-.71,3.4.4,7.4S347,328.28,346.81,328.4Z"
      style="fill: rgb(38, 50, 56); transform-origin: 344.597px 321.39px"
      id="elf3xhdcxa98o"
      className="animable"
    ></path>
    <path
      d="M348.35,298.38a20.64,20.64,0,0,1-.91-3.83,35.4,35.4,0,0,1-.58-9.52,18,18,0,0,1,3.26-8.95,11.35,11.35,0,0,1,2-2.12,3,3,0,0,1,.89-.6,28.85,28.85,0,0,0-2.52,3,19.15,19.15,0,0,0-3,8.76,41.13,41.13,0,0,0,.39,9.39A30.89,30.89,0,0,1,348.35,298.38Z"
      style="fill: rgb(38, 50, 56); transform-origin: 349.886px 285.87px"
      id="el7b911wcsm3x"
      className="animable"
    ></path>
    <polygon
      points="340.18 169.24 348.03 204.52 350.38 259.9 367.48 258.63 369.96 202.19 364.4 166.01 340.18 169.24"
      style="fill: rgb(206, 148, 122); transform-origin: 355.07px 212.955px"
      id="ele4yglqy8p5"
      className="animable"
    ></polygon>
    <path
      d="M352.2,280.3a1.26,1.26,0,0,1-1.76-.84c-.65-2.42-2.33-9-2.29-11.44.06-3.07,1.82-14.9,1.82-14.9l17.83.12,4.48,16.27s-1.17,6.68-2.34,7.07a20.31,20.31,0,0,1-2.26.44l-.49,2.05c-1,3.13-4.71,2.27-4.71,2.27a4.11,4.11,0,0,1-2.39,2.71,3,3,0,0,1-3.13-.71s-2.44,1.43-3.51.24-.77-3.75-.77-3.75A1,1,0,0,1,352.2,280.3Z"
      style="fill: rgb(206, 148, 122); transform-origin: 360.215px 268.672px"
      id="el4zoh4te3vu"
      className="animable"
    ></path>
    <path
      d="M352.72,281.17a1.75,1.75,0,0,0,0-.55,12.81,12.81,0,0,0-.07-1.49c-.1-1.25-.36-3-.65-4.86a41,41,0,0,1-.51-4.85c0-1.24.15-2,.1-2a1.82,1.82,0,0,0-.17.52,8.07,8.07,0,0,0-.17,1.49,29.14,29.14,0,0,0,.43,4.9c.29,1.89.58,3.6.74,4.84S352.67,281.17,352.72,281.17Z"
      style="fill: rgb(165, 99, 73); transform-origin: 351.996px 274.295px"
      id="elzgyybxhb5te"
      className="animable"
    ></path>
    <path
      d="M356.86,283.36a4,4,0,0,0,.28-1.3,18.62,18.62,0,0,0,.09-3.2c-.07-1.25-.19-2.38-.3-3.18a5.42,5.42,0,0,0-.24-1.31,43.1,43.1,0,0,0,.2,4.5,28.29,28.29,0,0,1,0,3.17A7.74,7.74,0,0,0,356.86,283.36Z"
      style="fill: rgb(165, 99, 73); transform-origin: 356.975px 278.865px"
      id="elxwnnpeb36f"
      className="animable"
    ></path>
    <path
      d="M362.52,281.37a13.49,13.49,0,0,0,.27-3.81,12.56,12.56,0,0,0-.54-3.78c-.09,0,.14,1.7.2,3.79S362.42,281.36,362.52,281.37Z"
      style="fill: rgb(165, 99, 73); transform-origin: 362.527px 277.575px"
      id="el4fbbhlfb22s"
      className="animable"
    ></path>
    <path
      d="M367.19,279.07a12.84,12.84,0,0,0-.12-5.87,26.16,26.16,0,0,0,.07,2.94C367.18,277.75,367.1,279.06,367.19,279.07Z"
      style="fill: rgb(165, 99, 73); transform-origin: 367.264px 276.135px"
      id="el1vtqiqntn5o"
      className="animable"
    ></path>
    <path
      d="M362,271.34s.1-.21,0-.55a2,2,0,0,0-.66-1.14,2,2,0,0,0-1.25-.45c-.34,0-.54.1-.53.14a3.46,3.46,0,0,1,1.56.56A3.41,3.41,0,0,1,362,271.34Z"
      style="fill: rgb(165, 99, 73); transform-origin: 360.802px 270.27px"
      id="el1z6bv0p2lbi"
      className="animable"
    ></path>
    <path
      d="M367.06,269.64c.09,0,0-.67-.69-1.1a1.26,1.26,0,0,0-1.28-.21c0,.1.56.12,1.1.49S367,269.67,367.06,269.64Z"
      style="fill: rgb(165, 99, 73); transform-origin: 366.09px 268.941px"
      id="elfrtqwbnxx95"
      className="animable"
    ></path>
    <path
      d="M356.09,270.51c.09,0,.12-.48-.31-.81s-.89-.2-.86-.11.35.12.66.37S356,270.52,356.09,270.51Z"
      style="fill: rgb(165, 99, 73); transform-origin: 355.532px 269.999px"
      id="el43tqcwwc3py"
      className="animable"
    ></path>
    <path
      d="M350,253.12a1,1,0,0,0,0,.14l-.07.44c-.07.4-.16,1-.27,1.69-.23,1.47-.55,3.62-.91,6.32-.17,1.36-.36,2.84-.52,4.46a15,15,0,0,0-.11,2.53,25.64,25.64,0,0,0,.36,2.68c.33,1.82.77,3.73,1.26,5.71.13.49.25,1,.38,1.5.07.25.14.5.2.76a1.74,1.74,0,0,0,.38.77,1.36,1.36,0,0,0,1.67.3.43.43,0,0,0,.16-.24,1.87,1.87,0,0,0,.07-.22c0-.14.06-.27.08-.41a7.73,7.73,0,0,0,.06-.85.16.16,0,0,0-.32,0,17.47,17.47,0,0,0,.08,2.16,7.65,7.65,0,0,0,.49,2.17,2,2,0,0,0,.74.93,2,2,0,0,0,1.17.25,5.55,5.55,0,0,0,2.21-.73l-.21,0a3.1,3.1,0,0,0,1,.69,3.29,3.29,0,0,0,3-.3,4.46,4.46,0,0,0,1.74-2.46l-.2.12a5.3,5.3,0,0,0,3-.23,3.36,3.36,0,0,0,1.92-2.15h0c.16-.7.32-1.38.48-2.06l-.12.12c.44-.06.88-.14,1.31-.22l.64-.13.33-.09a1,1,0,0,0,.32-.23,3.81,3.81,0,0,0,.64-1.16c.16-.4.29-.8.41-1.2a46.34,46.34,0,0,0,1.05-4.61v-.06l-3.32-11.83c-.4-1.39-.71-2.49-.93-3.26-.11-.36-.2-.65-.26-.86a1.08,1.08,0,0,0-.1-.28,2.11,2.11,0,0,0,.06.29c.06.22.13.5.22.87.2.78.5,1.88.87,3.29.77,2.85,1.87,6.92,3.2,11.86v-.06a45.79,45.79,0,0,1-1.06,4.57c-.12.39-.25.78-.41,1.17a3.63,3.63,0,0,1-.58,1.06.55.55,0,0,1-.2.15l-.3.08-.63.13c-.43.08-.86.15-1.3.21a.18.18,0,0,0-.13.12c-.16.68-.32,1.36-.49,2h0a3,3,0,0,1-1.74,2,5,5,0,0,1-2.78.21.19.19,0,0,0-.2.12,4.12,4.12,0,0,1-1.6,2.26,3,3,0,0,1-2.73.27,2.77,2.77,0,0,1-.91-.6.18.18,0,0,0-.21,0,5.19,5.19,0,0,1-2.06.69,1.7,1.7,0,0,1-1-.2,1.77,1.77,0,0,1-.61-.78,7.67,7.67,0,0,1-.47-2.08,18.78,18.78,0,0,1-.08-2.11h-.32a7,7,0,0,1-.06.79c0,.13,0,.27-.07.39s-.11.25-.08.29a1.31,1.31,0,0,1-.68.07,1.15,1.15,0,0,1-.6-.35,1.29,1.29,0,0,1-.31-.63c-.06-.26-.13-.51-.2-.76-.13-.5-.26-1-.38-1.5-.5-2-1-3.87-1.29-5.68a25.53,25.53,0,0,1-.37-2.65,15.78,15.78,0,0,1,.09-2.49c.15-1.61.32-3.1.49-4.45.34-2.68.61-4.83.8-6.34.1-.72.17-1.29.22-1.69,0-.18,0-.33,0-.44S350,253.12,350,253.12Z"
      style="fill: rgb(165, 99, 73); transform-origin: 360.264px 268.76px"
      id="elchdyxba5szw"
      className="animable"
    ></path>
    <path
      d="M286.54,102a29,29,0,0,0,16.17-4.89s-3.69,9-16.15,8.12Z"
      style="fill: rgb(165, 99, 73); transform-origin: 294.625px 101.2px"
      id="el9oje9pvpo4"
      className="animable"
    ></path>
    <g id="elqcn3dxnfiir">
      <path
        d="M336.69,169.71l3.49-.47,6.37,28.63-.35,6.38L348.47,215l.76,17.92s-8.59-26.94-9.05-33.37c-.5-6.9-3.49-29.88-3.49-29.88"
        style="opacity: 0.3; transform-origin: 342.96px 201.08px"
        className="animable"
      ></path>
    </g>
    <path
      d="M180.63,451.32s1.13,7.1,1.09,8.34l5,4.32,12.76-2.85,1.05-10.44Z"
      style="fill: rgb(244, 195, 174); transform-origin: 190.58px 457.335px"
      id="el0hrtkqlv3a6g"
      className="animable"
    ></path>
    <path
      d="M199.74,459.56l0,1.14s19.29,7.48,19.54,11.12l-38.12.26.43-12.69A21.77,21.77,0,0,0,199.74,459.56Z"
      style="fill: rgb(255, 90, 90); transform-origin: 200.22px 465.735px"
      id="elkxbwedc4na"
      className="animable"
    ></path>
    <g id="eliy1c60la22">
      <g style="opacity: 0.6; transform-origin: 200.247px 470.555px" className="animable">
        <path
          d="M181.18,472.08l.1-3.05,36.5.86s1.7.73,1.52,1.93Z"
          style="fill: rgb(255, 255, 255); transform-origin: 200.247px 470.555px"
          id="eltiq1qw2ezsb"
          className="animable"
        ></path>
      </g>
    </g>
    <path
      d="M199.9,460.8c0,.19-.94.28-1.85.88s-1.39,1.4-1.57,1.32.1-1.15,1.22-1.86S199.94,460.63,199.9,460.8Z"
      style="fill: rgb(38, 50, 56); transform-origin: 198.165px 461.822px"
      id="elx8idnhyx4b"
      className="animable"
    ></path>
    <path
      d="M203.91,462.43c0,.18-.76.5-1.39,1.29s-.8,1.63-1,1.62-.31-1.06.49-2S203.9,462.25,203.91,462.43Z"
      style="fill: rgb(38, 50, 56); transform-origin: 202.643px 463.852px"
      id="el7ue4e045y3"
      className="animable"
    ></path>
    <path
      d="M206.21,467.2c-.17,0-.43-.89,0-1.91s1.34-1.44,1.42-1.28-.46.7-.83,1.55S206.4,467.18,206.21,467.2Z"
      style="fill: rgb(38, 50, 56); transform-origin: 206.807px 465.588px"
      id="elvwsn9st0eb"
      className="animable"
    ></path>
    <path
      d="M222.14,451.32s1.13,7.1,1.09,8.34l5,4.32L241,461.13l1.06-10.44Z"
      style="fill: rgb(244, 195, 174); transform-origin: 232.1px 457.335px"
      id="elul036cb8j7a"
      className="animable"
    ></path>
    <path
      d="M241.26,459.56l0,1.14s19.29,7.48,19.54,11.12l-38.13.26.43-12.69A21.79,21.79,0,0,0,241.26,459.56Z"
      style="fill: rgb(255, 90, 90); transform-origin: 241.735px 465.735px"
      id="elywzuqmme7bl"
      className="animable"
    ></path>
    <g id="elnnre5enm0vg">
      <g style="opacity: 0.6; transform-origin: 241.762px 470.555px" className="animable">
        <path
          d="M222.69,472.08l.11-3.05,36.5.86s1.7.73,1.52,1.93Z"
          style="fill: rgb(255, 255, 255); transform-origin: 241.762px 470.555px"
          id="elk7v03yqpmh9"
          className="animable"
        ></path>
      </g>
    </g>
    <path
      d="M241.41,460.8c0,.19-.93.28-1.85.88s-1.39,1.4-1.56,1.32.1-1.15,1.21-1.86S241.45,460.63,241.41,460.8Z"
      style="fill: rgb(38, 50, 56); transform-origin: 239.682px 461.822px"
      id="elrzkmrv56kod"
      className="animable"
    ></path>
    <path
      d="M245.42,462.43c0,.18-.76.5-1.39,1.29s-.8,1.63-1,1.62-.31-1.06.49-2S245.42,462.25,245.42,462.43Z"
      style="fill: rgb(38, 50, 56); transform-origin: 244.153px 463.852px"
      id="elru4fjikouuo"
      className="animable"
    ></path>
    <path
      d="M247.72,467.2c-.16,0-.43-.89,0-1.91s1.34-1.44,1.42-1.28-.46.7-.83,1.55S247.91,467.18,247.72,467.2Z"
      style="fill: rgb(38, 50, 56); transform-origin: 248.318px 465.588px"
      id="el8kxz1i3r906"
      className="animable"
    ></path>
    <polygon
      points="254.21 273.31 170.41 273.31 161.75 312.99 179.06 454.07 205.86 454.07 211.99 329.81 218.44 454.07 247.17 454.07 259.24 314.55 254.21 273.31"
      style="fill: rgb(38, 50, 56); transform-origin: 210.495px 363.69px"
      id="el8ditwb84ynv"
      className="animable"
    ></polygon>
    <path
      d="M190.15,452.1c-.15,0-.51-24.87-.82-55.53S188.89,341,189,341s.51,24.85.81,55.53S190.29,452.09,190.15,452.1Z"
      style="fill: rgb(69, 90, 100); transform-origin: 189.58px 396.55px"
      id="elq4s344j0rb"
      className="animable"
    ></path>
    <path
      d="M233.06,451.62a1.8,1.8,0,0,1,0-.31c0-.23.05-.53.09-.91.09-.83.21-2,.38-3.49.34-3,.8-7.41,1.32-12.83s1-11.88,1.53-19.07.85-15.09,1.09-23.39.27-16.23.22-23.43-.25-13.68-.47-19.12-.43-9.85-.61-12.89c-.07-1.49-.13-2.66-.18-3.5,0-.38,0-.68,0-.91a2.38,2.38,0,0,1,0-.31,1.05,1.05,0,0,1,.05.31l.09.9c.06.84.16,2,.28,3.5.24,3,.51,7.44.77,12.88s.47,11.93.58,19.14,0,15.13-.18,23.44-.65,16.23-1.13,23.42-1.07,13.65-1.64,19.07-1.08,9.8-1.49,12.82c-.21,1.48-.36,2.64-.48,3.47,0,.38-.1.68-.13.91A1.48,1.48,0,0,1,233.06,451.62Z"
      style="fill: rgb(69, 90, 100); transform-origin: 235.649px 391.54px"
      id="elrp4idqilmyi"
      className="animable"
    ></path>
    <path
      d="M208.87,146l-32,1.73-2.61,12.06s8.83,7.09,9.71,7.38,21,3.1,21,3.1,21.65-10.09,21.36-10S208.87,146,208.87,146Z"
      style="fill: rgb(244, 195, 174); transform-origin: 200.296px 158.135px"
      id="ele7zw0ovxakd"
      className="animable"
    ></path>
    <path
      d="M181,90.15c-1.82-1.89-4.9-1.53-7.48-1a15.56,15.56,0,0,0-4.39,1.31,5.31,5.31,0,0,0-2.83,3.44c-.45,2.29,1.18,4.56.89,6.88a5.69,5.69,0,0,1-2.76,3.88,16.75,16.75,0,0,1-4.58,1.77,9.13,9.13,0,0,0,6.52,3.44c-.15.83-1.21,1.07-2,1.18s-1.9.58-1.78,1.42a1.7,1.7,0,0,0,.76,1,23.54,23.54,0,0,0,15.43,4.66c2.58-.15,5.31-.84,7-2.77s2-4.37,2-6.78a23.31,23.31,0,0,0-8.17-17.39"
      style="fill: rgb(224, 224, 224); transform-origin: 173.815px 103.447px"
      id="eljay9v28zqrl"
      className="animable"
    ></path>
    <path
      d="M179.59,91.35a11.09,11.09,0,0,1,11-13.69,8.73,8.73,0,0,0,3.54-.23,9.58,9.58,0,0,0,2.53-2.07c2.34-2.12,5.6-2.83,8.71-3.32,4.43-.7,9.07-1.1,13.3.37s7.94,5.27,8,9.75c0,2-.63,3.88-.74,5.84s.54,4.21,2.32,5c1.15.54,2.65.44,3.47,1.41a2.59,2.59,0,0,1-.08,3,7.53,7.53,0,0,1-2.54,2,3.84,3.84,0,0,1,2.84,3.7,5.71,5.71,0,0,1-2.24,4.33,11.55,11.55,0,0,1-4.55,2.06c-7.73,1.93-15.94-.06-23.21-3.31a69.61,69.61,0,0,1-21.41-15l.62-.71"
      style="fill: rgb(224, 224, 224); transform-origin: 205.72px 90.8348px"
      id="el1ogx66isufy"
      className="animable"
    ></path>
    <path
      d="M177.61,95.07c.25-.71,2.34-5.5,3.09-5.45.53,0-.71,4.48-.43,4.94,2.71,4.35,3.57,9.65,3.31,14.77A66.6,66.6,0,0,1,181,124"
      style="fill: rgb(224, 224, 224); transform-origin: 180.617px 106.81px"
      id="eloi1y5p9ac2l"
      className="animable"
    ></path>
    <path
      d="M181,124a85.46,85.46,0,0,1-4.16-14.25"
      style="fill: rgb(224, 224, 224); transform-origin: 178.92px 116.875px"
      id="eljdee8rpowxl"
      className="animable"
    ></path>
    <path
      d="M195.62,164.91a14.14,14.14,0,0,1-14.24-13.71L180,105c-.77-12.41,5.81-23.2,18.23-23.62l1.15,0A22.21,22.21,0,0,1,221,102.35c.61,10.76,1.14,22.65.93,28.4-.44,11.92-12.4,13.49-12.4,13.49s0,2.76.08,6.26a14.15,14.15,0,0,1-14,14.41Z"
      style="fill: rgb(244, 195, 174); transform-origin: 200.958px 123.145px"
      id="el7lnvfo1u2sq"
      className="animable"
    ></path>
    <path
      d="M209.55,144.38a28.8,28.8,0,0,1-15.41-5s3.57,8.76,15.49,8Z"
      style="fill: rgb(204, 147, 127); transform-origin: 201.885px 143.403px"
      id="el5ndae09ysbn"
      className="animable"
    ></path>
    <path
      d="M201.19,125.12a2.57,2.57,0,1,1,2.84,4.13,3.26,3.26,0,0,1-2.07.06,2.53,2.53,0,0,1-1.34-.82,2.3,2.3,0,0,1-.19-2.19,3.52,3.52,0,0,1,1.12-1.5"
      style="fill: rgb(204, 147, 127); transform-origin: 202.944px 126.871px"
      id="el2xqmrrkmesm"
      className="animable"
    ></path>
    <path
      d="M218,110.35a1.7,1.7,0,0,1-1.68,1.68,1.63,1.63,0,0,1-1.72-1.58,1.71,1.71,0,0,1,1.68-1.68A1.63,1.63,0,0,1,218,110.35Z"
      style="fill: rgb(38, 50, 56); transform-origin: 216.3px 110.4px"
      id="el20eovp15jyk"
      className="animable"
    ></path>
    <path
      d="M218.37,108.16c-.22.21-1.49-.77-3.32-.81s-3.2.84-3.39.62.13-.5.73-.91a4.68,4.68,0,0,1,2.72-.77,4.48,4.48,0,0,1,2.63.92C218.29,107.65,218.47,108.06,218.37,108.16Z"
      style="fill: rgb(38, 50, 56); transform-origin: 215.001px 107.239px"
      id="elzf6cjckov2i"
      className="animable"
    ></path>
    <path
      d="M200.85,110.35a1.71,1.71,0,0,1-1.69,1.68,1.63,1.63,0,0,1-1.71-1.58,1.7,1.7,0,0,1,1.68-1.68A1.63,1.63,0,0,1,200.85,110.35Z"
      style="fill: rgb(38, 50, 56); transform-origin: 199.15px 110.4px"
      id="elqz2eozr566q"
      className="animable"
    ></path>
    <path
      d="M200.73,108.17c-.21.22-1.48-.77-3.31-.81s-3.2.85-3.39.62.12-.5.72-.91a4.7,4.7,0,0,1,2.72-.77,4.61,4.61,0,0,1,2.64.92C200.66,107.67,200.84,108.07,200.73,108.17Z"
      style="fill: rgb(38, 50, 56); transform-origin: 197.368px 107.25px"
      id="elfzv0zukc1am"
      className="animable"
    ></path>
    <path
      d="M206.62,121.93a11.67,11.67,0,0,1,3-.47c.47,0,.92-.12,1-.44a2.32,2.32,0,0,0-.28-1.39L209,116c-1.8-5.11-3.09-9.32-2.89-9.39s1.84,4,3.63,9.14c.44,1.26.85,2.47,1.24,3.62a2.64,2.64,0,0,1,.2,1.84,1.16,1.16,0,0,1-.78.66,2.68,2.68,0,0,1-.8.09A12.27,12.27,0,0,1,206.62,121.93Z"
      style="fill: rgb(38, 50, 56); transform-origin: 208.676px 114.323px"
      id="el6yu5uu191bo"
      className="animable"
    ></path>
    <path
      d="M201.2,123.06c.3,0,.25,2,1.92,3.43s3.79,1.29,3.8,1.57c0,.12-.48.37-1.37.38a5,5,0,0,1-3.18-1.2,4.29,4.29,0,0,1-1.48-2.87C200.83,123.54,201.06,123.05,201.2,123.06Z"
      style="fill: rgb(38, 50, 56); transform-origin: 203.9px 125.75px"
      id="elqpb464zu1vo"
      className="animable"
    ></path>
    <path
      d="M201,101c-.2.49-2,.21-4.17.42s-3.91.75-4.19.3c-.12-.22.19-.68.91-1.14a6.82,6.82,0,0,1,3.12-1,6.91,6.91,0,0,1,3.24.46C200.64,100.38,201,100.78,201,101Z"
      style="fill: rgb(224, 224, 224); transform-origin: 196.807px 100.72px"
      id="elvtizjaom4un"
      className="animable"
    ></path>
    <path
      d="M217.77,103c-.33.41-1.58,0-3.1-.11s-2.81.21-3.09-.23c-.13-.21.08-.62.66-1a4.38,4.38,0,0,1,2.53-.62,4.3,4.3,0,0,1,2.46.9C217.75,102.32,217.92,102.75,217.77,103Z"
      style="fill: rgb(224, 224, 224); transform-origin: 214.683px 102.105px"
      id="elhh6v4tm9q48"
      className="animable"
    ></path>
    <path
      d="M180.75,114c-.2-.09-8.13-2.62-8.07,5.54s8.24,6.41,8.25,6.17S180.75,114,180.75,114Z"
      style="fill: rgb(244, 195, 174); transform-origin: 176.805px 119.795px"
      id="elnx292w2anh"
      className="animable"
    ></path>
    <path
      d="M178.42,122.62s-.14.1-.38.21a1.4,1.4,0,0,1-1.06,0c-.87-.3-1.61-1.67-1.66-3.14a4.72,4.72,0,0,1,.39-2,1.62,1.62,0,0,1,1.06-1.1.71.71,0,0,1,.84.38c.11.23.06.39.1.4s.18-.13.11-.47a1,1,0,0,0-.33-.51,1,1,0,0,0-.79-.2,2,2,0,0,0-1.47,1.28,4.76,4.76,0,0,0-.47,2.27c.06,1.65.91,3.18,2.1,3.51a1.5,1.5,0,0,0,1.29-.23C178.4,122.82,178.45,122.64,178.42,122.62Z"
      style="fill: rgb(204, 147, 127); transform-origin: 176.592px 119.741px"
      id="elozc2v5qhn49"
      className="animable"
    ></path>
    <path
      d="M215.78,89.24c1.31-.75-3-5.13-6.25-6.55-4.94-2.14-12.45-3.38-16.95-2-5.42,1.64-9.89,4.42-12.54,9.42a32,32,0,0,0-3.33,16.44c.07,1.72-3.2,2.71-2.25,4.16,1.15,1.76.88.93,2.85,3.37.55.69,1.41,1.47,2,2.13,1.54,1.77,5.39,2.12,6.22.57a19.62,19.62,0,0,0,2.73-9.56c.07-2.5.12-6.29-.54-8.7a9.2,9.2,0,0,1-.33-2.75,7.88,7.88,0,0,1,1.28-4.29,6.09,6.09,0,0,1,.73-.75,7.33,7.33,0,0,1,7.17-1.35c4.65,1.54,8.4,4.08,13.72,1.8a6.56,6.56,0,0,0,2.28-2.06,2.38,2.38,0,0,1,3.22.06Z"
      style="fill: rgb(224, 224, 224); transform-origin: 195.154px 98.9361px"
      id="elu5463sphkg"
      className="animable"
    ></path>
    <path
      d="M188.68,91.06a11.2,11.2,0,0,1,8.72-.93c2.43.75,4.53,2.31,6.87,3.31a16.27,16.27,0,0,0,16.08-2.09,5.61,5.61,0,0,0,2.49-3.82,4.39,4.39,0,0,0-1.61-3.43,10.23,10.23,0,0,0-3.44-1.81A38.13,38.13,0,0,0,200,80.93c-4.79.68-9.68,2.17-13.13,5.54A4.5,4.5,0,0,0,185.76,88a1.9,1.9,0,0,0,.2,1.86,1.24,1.24,0,0,0,1.73.2"
      style="fill: rgb(224, 224, 224); transform-origin: 204.222px 87.5603px"
      id="el5y6ojia1apw"
      className="animable"
    ></path>
    <path
      d="M220.54,109.86c0,.14-.44.31-1,.49s-1,.33-1.09.21.31-.49.92-.7S220.53,109.72,220.54,109.86Z"
      style="fill: rgb(204, 147, 127); transform-origin: 219.489px 110.165px"
      id="elmbmkk7n9d5q"
      className="animable"
    ></path>
    <path
      d="M221.24,111.15c0,.14-.61.17-1.31.18s-1.29,0-1.31-.18.56-.35,1.31-.35S221.26,111,221.24,111.15Z"
      style="fill: rgb(204, 147, 127); transform-origin: 219.93px 111.066px"
      id="elzf48qk4gfnl"
      className="animable"
    ></path>
    <path
      d="M192.83,110.4c0,.15-.81.18-1.79.18s-1.78,0-1.79-.18.78-.35,1.79-.34S192.85,110.26,192.83,110.4Z"
      style="fill: rgb(204, 147, 127); transform-origin: 191.04px 110.32px"
      id="elaue52vajdf"
      className="animable"
    ></path>
    <path
      d="M192.73,112.05c0,.15-.72.13-1.56.13s-1.52,0-1.55-.12.66-.4,1.55-.4S192.76,111.92,192.73,112.05Z"
      style="fill: rgb(204, 147, 127); transform-origin: 191.175px 111.92px"
      id="eljpag8hl9f2"
      className="animable"
    ></path>
    <path
      d="M200.26,114.72s-.23.37-.82.7a4.5,4.5,0,0,1-2.54.51,4.59,4.59,0,0,1-2.41-1c-.51-.44-.71-.81-.66-.85a7.55,7.55,0,0,0,3.12,1.31A7.77,7.77,0,0,0,200.26,114.72Z"
      style="fill: rgb(204, 147, 127); transform-origin: 197.041px 115.015px"
      id="eloehmlj2j6b"
      className="animable"
    ></path>
    <path
      d="M201.09,114.32c.06.13-.81.58-2,.58a2.67,2.67,0,0,1-2-.57c0-.14.92.06,2,0S201,114.18,201.09,114.32Z"
      style="fill: rgb(204, 147, 127); transform-origin: 199.091px 114.583px"
      id="elz7w8hnsyoa"
      className="animable"
    ></path>
    <path
      d="M218.8,113.18a6.62,6.62,0,0,1-6,.56c0-.15,1.36.08,3-.08S218.74,113,218.8,113.18Z"
      style="fill: rgb(204, 147, 127); transform-origin: 215.8px 113.676px"
      id="elgzz46fkfn8r"
      className="animable"
    ></path>
    <path
      d="M217.91,113.81a4.55,4.55,0,0,1-5.48,1,20.68,20.68,0,0,0,2.82-.06A21.57,21.57,0,0,0,217.91,113.81Z"
      style="fill: rgb(204, 147, 127); transform-origin: 215.17px 114.565px"
      id="elntsvphsttg"
      className="animable"
    ></path>
    <path
      d="M214.11,99.28a7.41,7.41,0,0,1-2.07.5,27.25,27.25,0,0,1-5.11.27,26.65,26.65,0,0,1-5.07-.69,6.45,6.45,0,0,1-2-.66c0-.16,3.16.69,7.11.83S214.08,99.12,214.11,99.28Z"
      style="fill: rgb(204, 147, 127); transform-origin: 206.985px 99.3766px"
      id="elt01lc0nr6i"
      className="animable"
    ></path>
    <path
      d="M215.35,97.85a35,35,0,0,1-13.22,0c0-.15,3,.13,6.61.13S215.33,97.7,215.35,97.85Z"
      style="fill: rgb(204, 147, 127); transform-origin: 208.74px 98.1428px"
      id="el9i0l5w5zdtt"
      className="animable"
    ></path>
    <path
      d="M206.05,103.76c-.15,0-.19-.38-.21-.79s0-.77.15-.81.36.31.37.79S206.18,103.8,206.05,103.76Z"
      style="fill: rgb(204, 147, 127); transform-origin: 206.097px 102.96px"
      id="el5lfh631uh6p"
      className="animable"
    ></path>
    <path
      d="M208.56,104.09c-.05.13-.63,0-.87-.68s.05-1.16.18-1.09.12.46.3.9S208.63,104,208.56,104.09Z"
      style="fill: rgb(204, 147, 127); transform-origin: 208.084px 103.224px"
      id="el3iaz4cmdxop"
      className="animable"
    ></path>
    <path
      d="M200.93,122.54c0,.15-.58.24-1.09.67s-.74,1-.88.92-.14-.77.55-1.33S201,122.4,200.93,122.54Z"
      style="fill: rgb(204, 147, 127); transform-origin: 199.91px 123.272px"
      id="elhm171ak3tu"
      className="animable"
    ></path>
    <path
      d="M198.79,122.39c0,.14-.34.22-.57.5s-.29.58-.43.63-.16-.07-.19-.27a.86.86,0,0,1,.23-.7.88.88,0,0,1,.67-.32C198.7,122.23,198.8,122.32,198.79,122.39Z"
      style="fill: rgb(204, 147, 127); transform-origin: 198.192px 122.881px"
      id="eligwuwgyike"
      className="animable"
    ></path>
    <path
      d="M191.05,154.31s-.24,0-.56-.28a2.49,2.49,0,0,1-.78-1.49,6.41,6.41,0,0,1,.1-2.48,5.25,5.25,0,0,0,0-2.78c-.17-.44-.5-.85-.7-1.37a2.48,2.48,0,0,1,0-1.55,2,2,0,0,0,0-1.15,4.74,4.74,0,0,0-.51-.94,1.89,1.89,0,0,1-.32-1.66c.17-.42.45-.47.45-.44s-.18.15-.26.49a1.83,1.83,0,0,0,.44,1.41,4.8,4.8,0,0,1,.61,1,2.39,2.39,0,0,1,0,1.4,2,2,0,0,0,0,1.26c.16.42.48.82.7,1.36a5.39,5.39,0,0,1,0,3.06,6.81,6.81,0,0,0-.21,2.33,2.66,2.66,0,0,0,.56,1.41C190.88,154.17,191.07,154.27,191.05,154.31Z"
      style="fill: rgb(204, 147, 127); transform-origin: 189.631px 147.236px"
      id="eldy6idhwm8rd"
      className="animable"
    ></path>
    <path
      d="M196.23,155.3s-.26,0-.62-.21a3,3,0,0,1-1-1.46,26.43,26.43,0,0,1-1.34-5.51,13,13,0,0,1-.05-1.64,10.42,10.42,0,0,0,0-1.45c0-.9-.9-1.21-1.47-1.73a1.54,1.54,0,0,1-.53-.92.92.92,0,0,1,.28-.77c.37-.33.68-.13.64-.11s-.26,0-.49.25a.72.72,0,0,0-.15.58,1.35,1.35,0,0,0,.49.69c.26.22.61.39,1,.66a1.89,1.89,0,0,1,.74,1.29,9.75,9.75,0,0,1,0,1.53,14,14,0,0,0,.06,1.57,37,37,0,0,0,1.17,5.44,3.15,3.15,0,0,0,.75,1.42C196,155.2,196.24,155.26,196.23,155.3Z"
      style="fill: rgb(204, 147, 127); transform-origin: 193.722px 148.361px"
      id="elkwlc6dxbh3b"
      className="animable"
    ></path>
    <path
      d="M198.52,76.14a2.07,2.07,0,0,1,.46-.24q.47-.23,1.38-.57a22.84,22.84,0,0,1,5.33-1.21,23.75,23.75,0,0,1,8.09.51,16.65,16.65,0,0,1,4.52,1.7,8.49,8.49,0,0,1,4.51,8.8,10.59,10.59,0,0,1-1.66,4.55,10.21,10.21,0,0,1-3.15,3,12.12,12.12,0,0,1-3.5,1.51,14.73,14.73,0,0,1-5.45.39,13.48,13.48,0,0,1-1.47-.25,1.89,1.89,0,0,1-.5-.15s.71.11,2,.2a16,16,0,0,0,5.34-.54,12.16,12.16,0,0,0,3.36-1.52,10,10,0,0,0,3-2.94,10.36,10.36,0,0,0,1.56-4.35,8.07,8.07,0,0,0-4.26-8.3,16.82,16.82,0,0,0-4.38-1.68,23.91,23.91,0,0,0-7.95-.6,25.25,25.25,0,0,0-5.3,1C199.2,75.91,198.54,76.19,198.52,76.14Z"
      style="fill: rgb(255, 255, 255); transform-origin: 210.711px 84.3289px"
      id="elq0vpq60qps9"
      className="animable"
    ></path>
    <path
      d="M226.32,81.42a3.77,3.77,0,0,1,.07,2,9.23,9.23,0,0,1-2.12,4.35,17,17,0,0,1-3.65,3.15,6.83,6.83,0,0,1-1.72,1,8.15,8.15,0,0,1,1.51-1.28,24.4,24.4,0,0,0,3.47-3.19A10.22,10.22,0,0,0,226,83.35C226.31,82.19,226.23,81.43,226.32,81.42Z"
      style="fill: rgb(255, 255, 255); transform-origin: 222.696px 86.67px"
      id="ela02k7jik7o9"
      className="animable"
    ></path>
    <path
      d="M196,82.86a27.82,27.82,0,0,0-6.41,3c-1.58,1.14-3,2.32-3.45,3.48a3.86,3.86,0,0,0-.2,2s-.16-.15-.25-.52a2.84,2.84,0,0,1,.1-1.6c.45-1.35,1.88-2.61,3.5-3.78A16.46,16.46,0,0,1,194,83.24,5.71,5.71,0,0,1,196,82.86Z"
      style="fill: rgb(255, 255, 255); transform-origin: 190.81px 87.1px"
      id="elp1agwgwec2i"
      className="animable"
    ></path>
    <path
      d="M188.15,81.21c0,.06-.43.44-1.17,1.05a11.3,11.3,0,0,0-2.52,2.7,5.58,5.58,0,0,0-.86,3.46,14.24,14.24,0,0,0,.36,1.5s-.51-.43-.72-1.44a5.39,5.39,0,0,1,.77-3.8A9.47,9.47,0,0,1,186.76,82,4.2,4.2,0,0,1,188.15,81.21Z"
      style="fill: rgb(255, 255, 255); transform-origin: 185.657px 85.565px"
      id="elunxmhl5edj"
      className="animable"
    ></path>
    <path
      d="M171.89,95.92a4,4,0,0,1,.92-1.63,8.92,8.92,0,0,1,8.1-3.32,3.88,3.88,0,0,1,1.8.52c0,.08-.71-.1-1.83-.15a9.73,9.73,0,0,0-7.79,3.19C172.33,95.35,172,96,171.89,95.92Z"
      style="fill: rgb(255, 255, 255); transform-origin: 177.3px 93.4142px"
      id="elrspchr9fgh"
      className="animable"
    ></path>
    <path
      d="M177.84,100.15a2.51,2.51,0,0,1-.37-1.44,5.46,5.46,0,0,1,3.93-5.5,2.44,2.44,0,0,1,1.48-.11,13.32,13.32,0,0,1-1.36.46,5.71,5.71,0,0,0-3.68,5.15A13.9,13.9,0,0,1,177.84,100.15Z"
      style="fill: rgb(255, 255, 255); transform-origin: 180.172px 96.5915px"
      id="el7jp2z9p1ho6"
      className="animable"
    ></path>
    <path
      d="M229.54,99.67a3.21,3.21,0,0,1-1.79.06,6.75,6.75,0,0,1-5.67-5.89,3.31,3.31,0,0,1,.12-1.78c.09,0,0,.68.24,1.72a7.09,7.09,0,0,0,5.38,5.59C228.86,99.62,229.53,99.59,229.54,99.67Z"
      style="fill: rgb(255, 255, 255); transform-origin: 225.775px 95.9446px"
      id="elkg13jwf5kys"
      className="animable"
    ></path>
    <path
      d="M229.4,103.33a8,8,0,0,1-4.56-.19,7.86,7.86,0,0,1-4-2.25,33.5,33.5,0,0,0,4.11,1.75A37.3,37.3,0,0,0,229.4,103.33Z"
      style="fill: rgb(255, 255, 255); transform-origin: 225.12px 102.232px"
      id="elwal61ejeig"
      className="animable"
    ></path>
    <path
      d="M216.3,145.9c1.27,0,14.76-1.8,23,3.63S269.7,197,269.7,197s6.76,22.37-2.74,26.8-34.61,17.94-34.61,17.94l-6.12-22.16,17.31-8V190.21Z"
      style="fill: rgb(69, 90, 100); transform-origin: 244.166px 193.677px"
      id="eltxweq0ertqk"
      className="animable"
    ></path>
    <path
      d="M243.54,192.05l9.31.51a17.32,17.32,0,0,1,12.89,6.89l6,8.06s3.21,4.17,2.27,6c-.77,1.5-2.29,1.38-3.76.06s-6.16-8.21-6.16-8.21,8.64,11.06,6.67,13.1-4.18-.64-4.18-.64,1.32,4.26-1.32,3.82-5.81-4.4-5.81-4.4.39,2.49-2,2.2-9.24-10.86-9.83-10.86-3.66-.29-3.66-.29Z"
      style="fill: rgb(206, 148, 122); transform-origin: 258.861px 206.861px"
      id="elgejpoaj76v"
      className="animable"
    ></path>
    <path
      d="M260.54,201.85a26.77,26.77,0,0,1,3.55,3.84,26.49,26.49,0,0,1,3.15,4.17,26.76,26.76,0,0,1-3.55-3.84A27,27,0,0,1,260.54,201.85Z"
      style="fill: rgb(165, 99, 73); transform-origin: 263.89px 205.855px"
      id="el4etcoznvzhj"
      className="animable"
    ></path>
    <path
      d="M257.8,206.39a11,11,0,0,1,1.42,1.73c.83,1.11,2,2.63,3.28,4.29s2.5,3.14,3.37,4.22a9.72,9.72,0,0,1,1.34,1.8,9.57,9.57,0,0,1-1.62-1.56c-.94-1-2.2-2.47-3.5-4.14s-2.41-3.23-3.17-4.39A8.72,8.72,0,0,1,257.8,206.39Z"
      style="fill: rgb(165, 99, 73); transform-origin: 262.505px 212.41px"
      id="elc0zd5ga1j2b"
      className="animable"
    ></path>
    <path
      d="M254.64,211.1a10.12,10.12,0,0,1,2.88,2.91,10.33,10.33,0,0,1,2,3.59c-.13.07-1.05-1.5-2.39-3.28A40.11,40.11,0,0,1,254.64,211.1Z"
      style="fill: rgb(165, 99, 73); transform-origin: 257.08px 214.351px"
      id="el9p0ve10p1l7"
      className="animable"
    ></path>
    <path
      d="M237.57,167.82c-.09,0,.06-1.12,0-2.91a22.07,22.07,0,0,0-1.36-6.79,21.77,21.77,0,0,0-3.45-6c-1.13-1.38-2-2.12-1.91-2.19s.25.13.64.45a14.45,14.45,0,0,1,1.55,1.5,19.53,19.53,0,0,1,3.66,6.06,19.26,19.26,0,0,1,1.24,7,14.49,14.49,0,0,1-.18,2.14A2.31,2.31,0,0,1,237.57,167.82Z"
      style="fill: rgb(38, 50, 56); transform-origin: 234.392px 158.868px"
      id="elx1s5c0eagcj"
      className="animable"
    ></path>
    <path
      d="M179.06,160.52s12.19,7,21.44,5A36.27,36.27,0,0,0,216.3,157l16.36,37.45-9.69,75-29.23,3.81-9.69-71.15Z"
      style="fill: rgb(250, 250, 250); transform-origin: 205.86px 215.13px"
      id="el7hssj0ks3mq"
      className="animable"
    ></path>
    <path
      d="M178.15,147.3l-6.35,2.23-11.74,76.58S151,258,151.79,271.78,160,328.24,160,328.24l53.56-5.64-2.22-83.8s3.86-24.12-7.58-38.72S178.15,147.3,178.15,147.3Z"
      style="fill: rgb(69, 90, 100); transform-origin: 182.651px 237.77px"
      id="elvdjjltaysh"
      className="animable"
    ></path>
    <path
      d="M208.87,145.61c.74,1.06,12.45,45.56,11.19,54.93s-8.08,29-8.08,29v92.78L259.24,318s3.87-33.87,0-50.09-9.51-35.43-9.51-35.43L246,175.85l-23.78-30.24Z"
      style="fill: rgb(69, 90, 100); transform-origin: 234.915px 233.965px"
      id="el99d90zrzq6u"
      className="animable"
    ></path>
    <path
      d="M261.54,297.28a1.2,1.2,0,0,1-.27-.14l-.76-.46c-.68-.41-1.66-1-3-1.7a16.21,16.21,0,0,0-5.09-1.71,9.63,9.63,0,0,0-3.32.13,12.57,12.57,0,0,0-3.44,1.46c-1.13.68-2.25,1.51-3.42,2.38l-3.66,2.7c-2.53,1.85-5.21,3.86-8.09,5.93a10.89,10.89,0,0,1-5,2.15,11.66,11.66,0,0,1-5.58-1.25c-3.51-1.59-7.14-3.17-10.93-4.66-1.9-.74-3.77-1.48-5.64-2.09a16.45,16.45,0,0,0-5.66-.95,10.51,10.51,0,0,0-5.19,1.72,24.81,24.81,0,0,0-4.13,3.41c-2.51,2.44-4.8,5-7.64,6.53a7.41,7.41,0,0,1-1.07.5,5.17,5.17,0,0,1-1.1.39,8.79,8.79,0,0,1-2.23.43,17.54,17.54,0,0,1-4.21-.26,47.26,47.26,0,0,1-12-4c-1.36-.62-2.4-1.14-3.1-1.49l-.8-.4c-.18-.1-.27-.15-.26-.16l.29.11.81.36,3.14,1.4a49.82,49.82,0,0,0,12,3.83,17,17,0,0,0,4.13.22,8.47,8.47,0,0,0,2.14-.43,5.08,5.08,0,0,0,1-.38,8.91,8.91,0,0,0,1-.49c2.74-1.48,5-4,7.51-6.49a25.33,25.33,0,0,1,4.2-3.5,11.07,11.07,0,0,1,5.42-1.8,17,17,0,0,1,5.85,1c1.9.63,3.77,1.37,5.67,2.1,3.79,1.49,7.45,3.09,10.94,4.68a11.12,11.12,0,0,0,5.33,1.22,10.38,10.38,0,0,0,4.82-2l8.11-5.88,3.67-2.67a41.29,41.29,0,0,1,3.48-2.37,12.27,12.27,0,0,1,3.55-1.47,9.74,9.74,0,0,1,3.43-.1,15.83,15.83,0,0,1,5.15,1.82,32.74,32.74,0,0,1,2.94,1.79l.74.5C261.46,297.21,261.55,297.27,261.54,297.28Z"
      style="fill: rgb(250, 250, 250); transform-origin: 208.745px 302.527px"
      id="elq91h7zh04xb"
      className="animable"
    ></path>
    <path
      d="M197.87,226.09c.26-.09,8.41-4.55,10.47-4.81s18.08-1,18.08-1l4.28,15.51s-13.35,6.47-15.41,7-10.81,3.69-12.27,3.69-5.58-1.38-5.58-2.32a1.45,1.45,0,0,1,.6-1.29,28.85,28.85,0,0,0,5.58-.34,26.07,26.07,0,0,0,2.83-1.2s-14.67,2.23-15.7,1.88-1.8-2.49-1.8-2.49-1.72-1.2-1.89-2.31.43-1.63,1.37-2.06,7.29-3.26,9.18-3.78,6.87-1.37,6.87-1.37-15.11,1.63-16,1.2-2-2.06-.43-3a21,21,0,0,1,6.09-2.66C195.81,226.43,197.87,226.09,197.87,226.09Z"
      style="fill: rgb(244, 195, 174); transform-origin: 208.866px 233.38px"
      id="elyrv6hx6gblj"
      className="animable"
    ></path>
    <path
      d="M208.61,235.32a15,15,0,0,1-2.83,1.16c-1.78.63-4.27,1.41-7.07,2.12s-5.36,1.19-7.22,1.48a16.74,16.74,0,0,1-3.05.33,19.73,19.73,0,0,1,3-.69c1.84-.38,4.38-.93,7.17-1.63s5.27-1.42,7.08-2A20.77,20.77,0,0,1,208.61,235.32Z"
      style="fill: rgb(204, 147, 127); transform-origin: 198.525px 237.865px"
      id="elvypzkut1xg"
      className="animable"
    ></path>
    <path
      d="M207.2,223.77a21.63,21.63,0,0,1-4.56,1.29,21.65,21.65,0,0,1-4.67.78,21.63,21.63,0,0,1,4.56-1.29A21.83,21.83,0,0,1,207.2,223.77Z"
      style="fill: rgb(204, 147, 127); transform-origin: 202.585px 224.805px"
      id="elksvtdcmnv5"
      className="animable"
    ></path>
    <path
      d="M226.74,226.44a3.56,3.56,0,0,1-.61.08,5.62,5.62,0,0,0-1.53.61,5.08,5.08,0,0,1-2.48.79c-1-.06-2-.62-2.8.06a7.74,7.74,0,0,1-1.31,1,2.72,2.72,0,0,1-1.6.15c-1-.2-1.74-.58-2.43-.62a2,2,0,0,0-1.47.42c-.28.25-.34.48-.38.46s0-.26.23-.6a2.09,2.09,0,0,1,1.64-.65,20.3,20.3,0,0,1,2.48.51,2.25,2.25,0,0,0,1.31-.14,9.4,9.4,0,0,0,1.23-.94,2,2,0,0,1,.82-.39,2.54,2.54,0,0,1,.87,0c.54.08,1,.24,1.44.27a5.06,5.06,0,0,0,2.29-.64,4.49,4.49,0,0,1,1.67-.48C226.53,226.31,226.75,226.41,226.74,226.44Z"
      style="fill: rgb(204, 147, 127); transform-origin: 219.428px 227.859px"
      id="els5vjyfo08xh"
      className="animable"
    ></path>
    <path
      d="M226.9,229.62a3.13,3.13,0,0,1-1.71,1.14,4.85,4.85,0,0,1-2.25.23,4.71,4.71,0,0,0-1.22-.1,1.29,1.29,0,0,0-.92.67,2.18,2.18,0,0,1-1.21.93,3.29,3.29,0,0,1-1.39,0,10.82,10.82,0,0,0-2.12-.32,1.88,1.88,0,0,0-1.23.51c-.22.24-.27.43-.32.42s-.05-.22.16-.54a1.93,1.93,0,0,1,1.36-.76,8.83,8.83,0,0,1,2.22.22,2,2,0,0,0,2.11-.82,3.05,3.05,0,0,1,.52-.57,1.56,1.56,0,0,1,.76-.3,5.07,5.07,0,0,1,1.35.13,4.87,4.87,0,0,0,2.08-.1A13.46,13.46,0,0,0,226.9,229.62Z"
      style="fill: rgb(204, 147, 127); transform-origin: 220.701px 231.36px"
      id="elqsgzdhp56d"
      className="animable"
    ></path>
    <path
      d="M182.07,236.28a4.32,4.32,0,0,1-1.1.05,12.9,12.9,0,0,1-1.3-.06c-.5-.05-1.08-.08-1.71-.19a32.12,32.12,0,0,1-4.37-1,44.87,44.87,0,0,1-5.14-1.94,60.61,60.61,0,0,1-8.65-4.89c-1.06-.71-1.89-1.3-2.46-1.73a4.44,4.44,0,0,1-.85-.71,4.19,4.19,0,0,1,1,.54L160,228a76.16,76.16,0,0,0,8.67,4.73,50.4,50.4,0,0,0,5.06,2,34.52,34.52,0,0,0,4.29,1.06C180.5,236.16,182.08,236.18,182.07,236.28Z"
      style="fill: rgb(38, 50, 56); transform-origin: 169.28px 231.077px"
      id="el3pjvwh9mmg2"
      className="animable"
    ></path>
    <path
      d="M192.39,249.56a10.24,10.24,0,0,1-1.67-.34,16.17,16.17,0,0,1-1.93-.53c-.75-.23-1.61-.47-2.52-.83a56.86,56.86,0,0,1-6.33-2.77,75.39,75.39,0,0,1-7.26-4.34A92.8,92.8,0,0,1,160.81,231c-1.41-1.36-2.52-2.5-3.26-3.31a10.81,10.81,0,0,1-1.11-1.29,10.64,10.64,0,0,1,1.26,1.14c.78.77,1.93,1.87,3.37,3.19a105.49,105.49,0,0,0,11.9,9.58,81.85,81.85,0,0,0,7.19,4.34,60.2,60.2,0,0,0,6.24,2.85c.9.38,1.74.65,2.47.91s1.37.46,1.9.61A11.74,11.74,0,0,1,192.39,249.56Z"
      style="fill: rgb(38, 50, 56); transform-origin: 174.415px 237.98px"
      id="elbqvrqdj7zgp"
      className="animable"
    ></path>
    <path
      d="M248.2,209.26a23.64,23.64,0,0,1-3.12,1.57c-2,.91-4.69,2.13-7.72,3.42s-5.79,2.42-7.81,3.18c-1,.38-1.84.68-2.41.87a3,3,0,0,1-.91.24,25.82,25.82,0,0,1,3.18-1.45l7.75-3.32,7.77-3.28A23,23,0,0,1,248.2,209.26Z"
      style="fill: rgb(38, 50, 56); transform-origin: 237.215px 213.9px"
      id="elxuqzmj3libb"
      className="animable"
    ></path>
    <path
      d="M228.12,167.3s.14.11.36.35l.94,1.07c.82.91,2,2.21,3.6,3.76s3.45,3.36,5.48,5.46a41.86,41.86,0,0,1,5.88,7.47,24.38,24.38,0,0,1,3.15,9c.38,2.91.5,5.53.6,7.73s.12,4,.13,5.22c0,.57,0,1,0,1.42a1.51,1.51,0,0,1-.05.5,2.2,2.2,0,0,1-.06-.5q0-.57-.09-1.41c-.07-1.31-.17-3.07-.29-5.21s-.3-4.81-.71-7.68a24.26,24.26,0,0,0-3.12-8.78,42.29,42.29,0,0,0-5.78-7.4c-2-2.12-3.88-3.94-5.4-5.54s-2.71-2.94-3.49-3.89l-.86-1.13A2,2,0,0,1,228.12,167.3Z"
      style="fill: rgb(38, 50, 56); transform-origin: 238.192px 188.29px"
      id="elo7zwfnm96i"
      className="animable"
    ></path>
    <path
      d="M266,224.22a13,13,0,0,1-1.49.88l-4.16,2.26c-3.52,1.88-8.4,4.45-13.8,7.25-5.55,2.89-10.57,5.46-14.13,7.25l-.2.11-.06-.22c-.46-1.79-.84-3.27-1.12-4.39a10.44,10.44,0,0,1-.35-1.61,9.64,9.64,0,0,1,.54,1.56c.32,1.11.76,2.57,1.28,4.35l-.26-.12c3.52-1.88,8.51-4.51,14.06-7.39s10.31-5.32,13.87-7.12l4.23-2.11A10.06,10.06,0,0,1,266,224.22Z"
      style="fill: rgb(38, 50, 56); transform-origin: 248.345px 233.095px"
      id="elvv10zqih8k"
      className="animable"
    ></path>
    <path
      d="M213.31,243.45a4.51,4.51,0,0,1,0,.81c0,.57-.1,1.34-.18,2.3-.19,2-.33,4.89-.51,8.47-.32,7.15-.41,17-.24,28s.51,20.83.8,28c.14,3.54.26,6.43.34,8.48,0,1,.06,1.74.08,2.31a4.16,4.16,0,0,1,0,.81,4.79,4.79,0,0,1-.1-.8c0-.58-.11-1.34-.18-2.3-.14-2-.32-4.9-.51-8.48-.38-7.16-.79-17.06-.95-28s0-20.85.39-28c.23-3.58.42-6.48.68-8.47.11-1,.2-1.72.27-2.29A4.67,4.67,0,0,1,213.31,243.45Z"
      style="fill: rgb(38, 50, 56); transform-origin: 212.709px 283.04px"
      id="elcyr6om830tt"
      className="animable"
    ></path>
    <path
      d="M171.8,149.53s-17.67,7.54-23.12,19.49-16.63,49.89-16.89,56.9,12.73,28.84,12.73,28.84l20.53-13-3.9-9.61,6.23-41.31Z"
      style="fill: rgb(69, 90, 100); transform-origin: 151.793px 202.145px"
      id="el47bkx2q9y1s"
      className="animable"
    ></path>
    <path
      d="M163.37,470.26h0a2.49,2.49,0,0,1-2.49-2.5c0-2,.31-201.69.22-204.92-.19-6.88-4.38-10-4.56-10.17a2.5,2.5,0,0,1,2.9-4.07c.26.19,6.4,4.63,6.66,14.1.09,3.3-.21,196.83-.22,205.06A2.51,2.51,0,0,1,163.37,470.26Z"
      style="fill: rgb(38, 50, 56); transform-origin: 160.836px 359.22px"
      id="elm01ebh62mbf"
      className="animable"
    ></path>
    <path
      d="M149.18,277.69h0a2.51,2.51,0,0,1-2.49-2.51c0-7.42,0-18.69,0-19.35a2.47,2.47,0,0,1,2.31-2.64,2.55,2.55,0,0,1,2.68,2.36c0,.11,0,.46,0,19.64A2.5,2.5,0,0,1,149.18,277.69Z"
      style="fill: rgb(38, 50, 56); transform-origin: 149.182px 265.438px"
      id="elr43fu5kx12e"
      className="animable"
    ></path>
    <path
      d="M153,242.17l-4.84,4.24c-1.21,1.06-2.73,10.44-2.73,10.44s5.3,5.67,7.57,5.9a6.06,6.06,0,0,0,4.08-1.29s2.27,1.29,3.64.16-1.9-8.48-1.9-8.48-1.22-3.55,2.23-3.33l1.48,2.66,3.71,6.35s2.27-.31,2.65-1.44-1-4.91-1-4.91a5.47,5.47,0,0,0,.68-4.47c-.83-2.2-2.19-6.21-6.2-7.11S153,242.17,153,242.17Z"
      style="fill: rgb(244, 195, 174); transform-origin: 157.193px 251.716px"
      id="elzmq6bpb29sb"
      className="animable"
    ></path>
    <path
      d="M156.9,260.55c-.07.05-.68-.75-1.8-1.92a28.61,28.61,0,0,0-4.85-4,4.79,4.79,0,0,1-1.32-1.37,2.81,2.81,0,0,1-.31-1.79,5.51,5.51,0,0,1,1.3-2.64c.53-.64,1-1.12,1.24-1.48s.42-.56.45-.54a7,7,0,0,1-1.39,2.24,5.36,5.36,0,0,0-1.12,2.48,2.31,2.31,0,0,0,.27,1.47,4.27,4.27,0,0,0,1.19,1.21,23.88,23.88,0,0,1,4.81,4.21A8.54,8.54,0,0,1,156.9,260.55Z"
      style="fill: rgb(204, 147, 127); transform-origin: 152.743px 253.68px"
      id="else0fht7n2k"
      className="animable"
    ></path>
    <path
      d="M163.61,248.64c.11.1-.49.85-.74,1.94s-.1,2-.24,2.07-.58-.94-.27-2.19S163.52,248.53,163.61,248.64Z"
      style="fill: rgb(204, 147, 127); transform-origin: 162.938px 250.641px"
      id="elw5uitkzpl8e"
      className="animable"
    ></path>
    <path
      d="M136.57,222.3a8.76,8.76,0,0,1,1.42,0c.46,0,1,0,1.67,0l2.2.28c.82.11,1.68.37,2.63.58.47.12.93.31,1.42.48a11.93,11.93,0,0,1,1.49.57,24.65,24.65,0,0,1,6,3.77,38.76,38.76,0,0,1,4.92,5.07c1.38,1.67,2.54,3.23,3.53,4.52s1.8,2.35,2.37,3a8.27,8.27,0,0,1,.86,1.14,6.93,6.93,0,0,1-1-1c-.62-.68-1.48-1.69-2.5-3s-2.23-2.8-3.62-4.44a41.35,41.35,0,0,0-4.88-5,24.81,24.81,0,0,0-5.84-3.73,13.14,13.14,0,0,0-1.44-.58c-.48-.17-.93-.37-1.39-.5-.93-.22-1.77-.49-2.57-.63l-2.17-.35c-.64-.07-1.19-.09-1.65-.13A6.71,6.71,0,0,1,136.57,222.3Z"
      style="fill: rgb(38, 50, 56); transform-origin: 150.825px 231.991px"
      id="el1wgghovxnk9i"
      className="animable"
    ></path>
    <path
      d="M163.61,186.89a12.82,12.82,0,0,1-.23,1.76c-.18,1.12-.46,2.74-.82,4.74-.78,4.08-1.82,9.56-3,15.61s-2.07,11.63-2.65,15.66c-.28,1.94-.51,3.55-.68,4.76a12.19,12.19,0,0,1-.29,1.75,11.12,11.12,0,0,1,.09-1.77c.09-1.14.27-2.77.51-4.79.49-4,1.36-9.6,2.51-15.71s2.31-11.59,3.13-15.58l1-4.71A10.8,10.8,0,0,1,163.61,186.89Z"
      style="fill: rgb(38, 50, 56); transform-origin: 159.773px 209.03px"
      id="el7oinda8kcxu"
      className="animable"
    ></path>
    <polygon
      points="168.48 472.08 159.1 472.08 160.84 464.62 166.39 464.62 168.48 472.08"
      style="fill: rgb(69, 90, 100); transform-origin: 163.79px 468.35px"
      id="el26ukp3pkbu4"
      className="animable"
    ></polygon>
  </g>
  <defs>
    <filter id="active" height="200%">
      <feMorphology in="SourceAlpha" result="DILATED" operator="dilate" radius="2"></feMorphology>
      <feFlood flood-color="#32DFEC" flood-opacity="1" result="PINK"></feFlood>
      <feComposite in="PINK" in2="DILATED" operator="in" result="OUTLINE"></feComposite>
      <feMerge>
        <feMergeNode in="OUTLINE"></feMergeNode>
        <feMergeNode in="SourceGraphic"></feMergeNode>
      </feMerge>
    </filter>
    <filter id="hover" height="200%">
      <feMorphology in="SourceAlpha" result="DILATED" operator="dilate" radius="2"></feMorphology>
      <feFlood flood-color="#ff0000" flood-opacity="0.5" result="PINK"></feFlood>
      <feComposite in="PINK" in2="DILATED" operator="in" result="OUTLINE"></feComposite>
      <feMerge>
        <feMergeNode in="OUTLINE"></feMergeNode>
        <feMergeNode in="SourceGraphic"></feMergeNode>
      </feMerge>
      <feColorMatrix
        type="matrix"
        values="0   0   0   0   0                0   1   0   0   0                0   0   0   0   0                0   0   0   1   0 "
      ></feColorMatrix>
    </filter>
  </defs>
</svg>
